<svg xmlns="http://www.w3.org/2000/svg" xmlns:xlink="http://www.w3.org/1999/xlink" viewBox="0 0 334.65 451.5"><defs><radialGradient id="Dégradé_sans_nom_29" cx="344.5" cy="96.65" r="34.34" gradientTransform="matrix(-0.01, 1.02, -1, -0.01, 389.91, -330.6)" gradientUnits="userSpaceOnUse"><stop offset="0" stop-color="#ff94f9"/><stop offset="1" stop-color="#cc228e"/></radialGradient><linearGradient id="Áåçûìÿííûé_ãðàäèåíò_354" x1="113" y1="187" x2="230.65" y2="187" gradientUnits="userSpaceOnUse"><stop offset="0" stop-color="#01c8ef"/><stop offset="0.13" stop-color="#04b1dd"/><stop offset="0.55" stop-color="#0e6ba7"/><stop offset="0.85" stop-color="#154085"/><stop offset="1" stop-color="#172f78"/></linearGradient><radialGradient id="Áåçûìÿííûé_ãðàäèåíò_346" cx="92.14" cy="106.87" r="262.56" gradientUnits="userSpaceOnUse"><stop offset="0" stop-color="#01c8ef"/><stop offset="0.14" stop-color="#03bae4"/><stop offset="0.4" stop-color="#0895c8"/><stop offset="0.76" stop-color="#115a9a"/><stop offset="1" stop-color="#172f78"/></radialGradient><radialGradient id="Dégradé_sans_nom_29-2" cx="113.11" cy="333.71" r="88.88" gradientTransform="matrix(-1, 0, 0, 1, 277.91, 0)" xlink:href="#Dégradé_sans_nom_29"/><radialGradient id="Dégradé_sans_nom_29-3" cx="104.95" cy="336.04" r="89.45" gradientTransform="matrix(-1, 0, 0, 1, 277.91, 0)" xlink:href="#Dégradé_sans_nom_29"/><radialGradient id="Dégradé_sans_nom_29-4" cx="205.54" cy="326.41" r="66.09" gradientTransform="matrix(1, 0, 0, 1, 0, 0)" xlink:href="#Dégradé_sans_nom_29"/><radialGradient id="Dégradé_sans_nom_29-5" cx="149.7" cy="326.59" r="38.47" gradientTransform="matrix(1, 0, 0, 1, 0, 0)" xlink:href="#Dégradé_sans_nom_29"/><radialGradient id="Dégradé_sans_nom_29-6" cx="150.87" cy="335.13" r="44.98" gradientTransform="matrix(1, 0, 0, 1, 0, 0)" xlink:href="#Dégradé_sans_nom_29"/><radialGradient id="Dégradé_sans_nom_29-7" cx="144.06" cy="339.06" r="44.98" gradientTransform="matrix(1, 0, 0, 1, 0, 0)" xlink:href="#Dégradé_sans_nom_29"/><radialGradient id="Dégradé_sans_nom_29-8" cx="137.25" cy="342.99" r="44.98" gradientTransform="matrix(1, 0, 0, 1, 0, 0)" xlink:href="#Dégradé_sans_nom_29"/><radialGradient id="Dégradé_sans_nom_29-9" cx="168.16" cy="325.18" r="45" gradientTransform="matrix(1, 0, 0, 1, 0, 0)" xlink:href="#Dégradé_sans_nom_29"/><radialGradient id="Dégradé_sans_nom_29-10" cx="200.1" cy="355.64" r="10.4" gradientTransform="matrix(1, 0, 0, 1, 0, 0)" xlink:href="#Dégradé_sans_nom_29"/><radialGradient id="Dégradé_sans_nom_29-11" cx="219.42" cy="193.71" r="216.52" gradientTransform="matrix(-1, 0, 0, 1, 277.91, 0)" xlink:href="#Dégradé_sans_nom_29"/><radialGradient id="Dégradé_sans_nom_29-12" cx="-27.88" cy="371.7" r="38.05" gradientTransform="matrix(-1, 0, 0, 1, 277.91, 0)" xlink:href="#Dégradé_sans_nom_29"/><radialGradient id="Dégradé_sans_nom_29-13" cx="130.91" cy="300.12" r="84.74" gradientTransform="matrix(1, 0, 0, 1, 0, 0)" xlink:href="#Dégradé_sans_nom_29"/><radialGradient id="Dégradé_sans_nom_29-14" cx="139.51" cy="300.11" r="80.93" gradientTransform="matrix(1, 0, 0, 1, 0, 0)" xlink:href="#Dégradé_sans_nom_29"/><linearGradient id="Áåçûìÿííûé_ãðàäèåíò_354-2" x1="154.42" y1="213.25" x2="165.12" y2="213.25" xlink:href="#Áåçûìÿííûé_ãðàäèåíò_354"/><linearGradient id="Áåçûìÿííûé_ãðàäèåíò_354-3" x1="157.53" y1="210.63" x2="168.22" y2="210.63" xlink:href="#Áåçûìÿííûé_ãðàäèåíò_354"/></defs><title>Ñëîé 1</title><g id="Calque_2" data-name="Calque 2"><g id="Ñëîé_1" data-name="Ñëîé 1"><path d="M268.78,384.72a6.84,6.84,0,0,1-3.28-.84l-16.79-9.16,1-1.76,16.78,9.16a4.82,4.82,0,0,0,4.7,0l53.43-29.85a1.22,1.22,0,0,0,0-2.12L150.15,249.71a5,5,0,0,1-2.5-4.33v-8.93a5.27,5.27,0,0,1,2.58-4.52l8.58-5.06,1,1.72-8.57,5.06a3.26,3.26,0,0,0-1.6,2.8v8.93a3,3,0,0,0,1.5,2.6L325.59,348.4a3.22,3.22,0,0,1,0,5.6l-53.42,29.85A6.92,6.92,0,0,1,268.78,384.72Z" fill="#eaeaea"/><path d="M256.14,155.35l-1-1.76,29.44-16a10.79,10.79,0,0,0,5.63-9.48V11.34h2V128.1a12.79,12.79,0,0,1-6.68,11.24Z" fill="#eaeaea"/><path d="M49.68,450.5h-2V440.44a8,8,0,0,0-3.9-6.86L2.4,408.9a4.91,4.91,0,0,1,0-8.45l89.33-53.06,1,1.72L3.43,402.17a2.92,2.92,0,0,0,0,5l41.39,24.67a10.06,10.06,0,0,1,4.87,8.58Z" fill="#eaeaea"/><path d="M255.66,144.63a1,1,0,0,1-.88-.52,1,1,0,0,1,.4-1.33l29.44-15.73a10.56,10.56,0,0,0,5.63-9.31V3a1,1,0,0,1,2,0V117.74a12.52,12.52,0,0,1-6.68,11l-29.43,15.73A1,1,0,0,1,255.66,144.63Z" fill="#cc228e"/><path d="M286.44,188.05l-53.06-30.64a16.92,16.92,0,0,0-15.28,0l-92.16,53.21c-4.22,2.44-4.22,6.39,0,8.83L179,250.08a16.88,16.88,0,0,0,15.29,0l92.16-53.21C290.66,194.44,290.66,190.48,286.44,188.05Z" fill="#eaeaea"/><path d="M244.58,0c4.24,21.19,22.52,37.24,44.63,37.49S329.94,22.08,334.65,1Z" fill="url(#Dégradé_sans_nom_29)"/><g opacity="0.5"><path d="M275.06,114a.43.43,0,0,1,0,0s0,0,0,.07Z" fill="#380031"/></g><path d="M289.87,175.72h0V150.28l-32.15,4.29-24.07-13.9a16.86,16.86,0,0,0-15.28,0l-43.13,24.9-52.19,7v25.89h0c.06,1.55,1.09,3.09,3.14,4.28l53.05,30.63a17,17,0,0,0,15.29,0l92.16-53.21c2-1.18,3.08-2.71,3.14-4.26h0Z" fill="url(#Áåçûìÿííûé_ãðàäèåíò_354)"/><path d="M289.84,171.26c-.06,1.55-1.1,3.08-3.14,4.26l-92.16,53.21a16.88,16.88,0,0,1-15.29,0l-53-30.63c-2-1.19-3.08-2.73-3.14-4.28h0v4.61h0c.06,1.55,1.09,3.09,3.14,4.28l53.05,30.63a17,17,0,0,0,15.29,0l92.16-53.21c2-1.18,3.08-2.71,3.14-4.26h0v-4.61Z" fill="#11203c"/><path d="M286.7,145.68,233.64,115a16.92,16.92,0,0,0-15.28,0L126.2,168.25c-4.22,2.44-4.22,6.39,0,8.83l53.05,30.63a16.88,16.88,0,0,0,15.29,0L286.7,154.5C290.92,152.06,290.92,148.11,286.7,145.68Z" fill="url(#Áåçûìÿííûé_ãðàäèåíò_346)"/><path d="M286.7,153l-92.16,53.21a17,17,0,0,1-15.29,0l-53-30.63a5.92,5.92,0,0,1-3.08-3.65c-.39,1.85.63,3.77,3.08,5.19l53.05,30.63a16.88,16.88,0,0,0,15.29,0L286.7,154.5c2.45-1.41,3.47-3.34,3.07-5.18A5.83,5.83,0,0,1,286.7,153Z" fill="#fff"/><polygon points="225.63 200.27 223.12 201.72 223.12 198.82 225.63 197.37 225.63 200.27" fill="#fff"/><polygon points="230.89 197.24 228.38 198.69 228.38 195.78 230.89 194.34 230.89 197.24" fill="#fff"/><polygon points="236.14 194.2 233.63 195.65 233.63 192.75 236.14 191.3 236.14 194.2" fill="#fff"/><polygon points="231.84 202.56 229.33 204.01 229.33 201.11 231.84 199.66 231.84 202.56" fill="#fff"/><polygon points="236.47 199.89 233.96 201.34 233.96 198.44 236.47 196.99 236.47 199.89" fill="#fff"/><polygon points="253 184.47 250.49 185.92 250.49 183.02 253 181.57 253 184.47" fill="#fff"/><polygon points="267.47 176.11 264.96 177.56 264.96 174.66 267.47 173.21 267.47 176.11" fill="#fff"/><polygon points="241.4 191.17 238.88 192.62 238.88 189.72 241.4 188.27 241.4 191.17" fill="#fff"/><polygon points="206.59 139.61 244.07 161.21 240.62 163.2 203.14 141.61 206.59 139.61" fill="#11203c"/><polygon points="204.44 142.36 206.79 141 242.97 161.84 244.07 161.21 206.59 139.61 203.14 141.61 204.44 142.36" fill="#fff"/><polygon points="217.09 133.54 254.58 155.13 251.12 157.13 213.64 135.53 217.09 133.54" fill="#11203c"/><polygon points="214.94 136.28 217.29 134.92 253.48 155.76 254.58 155.13 217.09 133.54 213.64 135.53 214.94 136.28" fill="#fff"/><polygon points="227.59 127.46 265.08 149.05 261.62 151.05 224.14 129.46 227.59 127.46" fill="#11203c"/><polygon points="225.44 130.21 227.79 128.85 263.98 149.69 265.08 149.05 227.59 127.46 224.14 129.46 225.44 130.21" fill="#fff"/><polygon points="165.84 205.42 168.35 206.87 168.35 203.97 165.84 202.52 165.84 205.42" fill="#fff"/><polygon points="157.97 201.07 160.48 202.52 160.48 199.62 157.97 198.17 157.97 201.07" fill="#03a7d3"/><polygon points="150.09 196.72 152.6 198.17 152.6 195.26 150.09 193.81 150.09 196.72" fill="#03a7d3"/><polygon points="142.22 192.37 144.73 193.81 144.73 190.91 142.22 189.47 142.22 192.37" fill="#03a7d3"/><path d="M186.22,195.8a5.44,5.44,0,0,1-2.7-.63l-35.69-20.61a2.13,2.13,0,0,1-1.22-1.82,2.79,2.79,0,0,1,1.62-2.25l34.89-20.14a6.71,6.71,0,0,1,6.12-.24l35.7,20.61a2.15,2.15,0,0,1,1.21,1.83,2.78,2.78,0,0,1-1.62,2.25l-34.88,20.14A7,7,0,0,1,186.22,195.8Zm.34-45.38a6.1,6.1,0,0,0-3,.74L148.7,171.3a1.92,1.92,0,0,0-1.15,1.44,1.31,1.31,0,0,0,.74,1l35.7,20.6a5.85,5.85,0,0,0,5.19-.23L224.06,174c.73-.42,1.16-1,1.16-1.44a1.28,1.28,0,0,0-.75-1l-35.69-20.61A4.61,4.61,0,0,0,186.56,150.42Z" fill="#11203c"/><path d="M56.44,336,189.3,412.71a5.44,5.44,0,0,0,4.91.2l79.29-45.77c1.26-.73,1.1-2-.35-2.84L140.28,287.59a5.44,5.44,0,0,0-4.91-.2L56.08,333.16C54.82,333.89,55,335.16,56.44,336Z" fill="#eaeaea"/><path d="M55.3,311.05l7.33,3.83,73.45-42.41a5.34,5.34,0,0,1,4.8.2l126.68,73.14c1.22-.68,6.74-3.33,6.74-3.33l-2.68,7h0a1.57,1.57,0,0,1-.75.84L193.5,395a5.32,5.32,0,0,1-4.79-.2L59.06,319.9A2.25,2.25,0,0,1,58,318.75h0Z" fill="url(#Dégradé_sans_nom_29-2)"/><path d="M56.44,312.26,189.3,389a5.44,5.44,0,0,0,4.91.2L273.5,343.4c1.26-.73,1.1-2-.35-2.84L140.28,263.85a5.44,5.44,0,0,0-4.91-.2L56.08,309.42C54.82,310.15,55,311.42,56.44,312.26Z" fill="url(#Dégradé_sans_nom_29-3)"/><path d="M273.15,340.56,140.28,263.85a5.74,5.74,0,0,0-3.55-.63,5.23,5.23,0,0,1,1.93.63l132.86,76.71c1.46.84,1.61,2.11.35,2.84l-79.28,45.77a3.75,3.75,0,0,1-1.36.43,4.83,4.83,0,0,0,3-.43L273.5,343.4C274.76,342.67,274.6,341.4,273.15,340.56Z" fill="url(#Dégradé_sans_nom_29-4)"/><polygon points="102.59 301.86 192.54 353.79 196.81 351.33 106.85 299.39 102.59 301.86" fill="url(#Dégradé_sans_nom_29-5)"/><polygon points="95.78 305.79 201.69 366.94 205.96 364.47 100.04 303.32 95.78 305.79" opacity="0.4" fill="url(#Dégradé_sans_nom_29-6)"/><polygon points="88.97 309.72 194.88 370.87 199.15 368.4 93.23 307.25 88.97 309.72" opacity="0.4" fill="url(#Dégradé_sans_nom_29-7)"/><polygon points="82.16 313.65 188.07 374.8 192.34 372.34 86.42 311.19 82.16 313.65" fill="url(#Dégradé_sans_nom_29-8)"/><polygon points="219.79 352.52 117.31 293.36 113.04 295.82 214.74 354.54 219.01 357 223.27 354.54 219.79 352.52" opacity="0.4" fill="url(#Dégradé_sans_nom_29-9)"/><polygon points="187.37 350.81 208.55 363.03 212.82 360.57 191.48 348.25 187.37 350.81" opacity="0.4" fill="url(#Dégradé_sans_nom_29-10)"/><path d="M55.51,309.08l16.8-99.64L71,208.87l2-1.16h0a1.45,1.45,0,0,1,1.56.11l134.23,77.49a3.78,3.78,0,0,1,1.74,3.41L193.59,389.17a1.25,1.25,0,0,1-.7,1h0l-2,1.15-.34-1.85.11,0-133.41-77A3.77,3.77,0,0,1,55.51,309.08Z" fill="url(#Dégradé_sans_nom_29-11)"/><path d="M208,288.05l2.21-1a3,3,0,0,1,.28,1.66L193.59,389.17a1.25,1.25,0,0,1-.7,1h0l-2,1.15-.34-1.85.11,0-6.75-3.9Z" fill="url(#Dégradé_sans_nom_29-12)"/><path d="M55.15,313.7l134.23,77.5c1,.6,1.92.25,2.11-.82l16.93-100.44a3.79,3.79,0,0,0-1.75-3.41L72.44,209c-1-.59-1.92-.25-2.1.83L53.41,310.29A3.77,3.77,0,0,0,55.15,313.7Z" fill="url(#Dégradé_sans_nom_29-13)"/><path d="M206.67,286.53,72.44,209c-.8-.47-1.51-.36-1.87.2a2,2,0,0,1,.91.28L205.71,287a3.79,3.79,0,0,1,1.75,3.41L190.53,390.87a1.76,1.76,0,0,1-.23.61,1.17,1.17,0,0,0,1.19-1.1l16.93-100.44A3.79,3.79,0,0,0,206.67,286.53Z" fill="url(#Dégradé_sans_nom_29-14)"/><path d="M169.71,215.3l-29.45-17a3.05,3.05,0,0,1-1.28-2.44v-2.18c0-.94.57-1.37,1.28-1l29.45,17a3,3,0,0,1,1.28,2.43v2.19C171,215.28,170.42,215.71,169.71,215.3Z" fill="#11203c"/><path d="M168.22,213v-2.63l-3.58.36-.67-.39a1.32,1.32,0,0,0-1.25,0l-1,.65-4.22.41V214h0a.45.45,0,0,0,.25.34l3.17,1.83a1.33,1.33,0,0,0,1.17,0l5.8-2.88a.46.46,0,0,0,.3-.37Z" fill="url(#Áåçûìÿííûé_ãðàäèåíò_354-2)"/><path d="M161,213.57l-3.17-1.84c-.32-.18-.34-.47-.05-.67l5-3.35a1.32,1.32,0,0,1,1.25,0l4,2.31c.35.21.33.54-.05.73l-5.8,2.87A1.37,1.37,0,0,1,161,213.57Z" fill="url(#Áåçûìÿííûé_ãðàäèåíò_354-3)"/><path d="M268.78,371a6.77,6.77,0,0,1-3.28-.85L248.71,361a1,1,0,1,1,1-1.76l16.78,9.17a4.85,4.85,0,0,0,4.7,0l53.43-29.85a1.23,1.23,0,0,0,0-2.13L150.15,236a5,5,0,0,1-2.5-4.32v-8.93a5.29,5.29,0,0,1,2.58-4.53l8.58-5.05a1,1,0,0,1,1.37.35,1,1,0,0,1-.36,1.37L151.25,220a3.25,3.25,0,0,0-1.6,2.8v8.93a3,3,0,0,0,1.5,2.59L325.59,334.71a3.22,3.22,0,0,1,0,5.6l-53.42,29.85A6.82,6.82,0,0,1,268.78,371Z" fill="#cc228e"/><path d="M48.68,451.5a1,1,0,0,1-1-1V429.14a8,8,0,0,0-3.9-6.86L2.4,397.6a4.91,4.91,0,0,1,0-8.45l89.33-53.06a1,1,0,0,1,1.37.35,1,1,0,0,1-.35,1.37L3.43,390.87a2.92,2.92,0,0,0,0,5l41.39,24.67a10.06,10.06,0,0,1,4.87,8.58V450.5A1,1,0,0,1,48.68,451.5Z" fill="#cc228e"/></g></g></svg>