<svg xmlns="http://www.w3.org/2000/svg" viewBox="0 0 408.26 250.98"><defs><style>.cls-1,.cls-2{fill:#173d7a;}.cls-1{opacity:0.5;}.cls-3{fill:#396caa;}.cls-4{fill:#274f89;}.cls-11,.cls-5{fill:#d4ecff;}.cls-6{fill:#fff;}.cls-7{fill:#5793ce;}.cls-8{fill:#ff2c9c;}.cls-9{fill:#ffc2b0;}.cls-10{fill:#fafdff;}.cls-11{opacity:0.4;}</style></defs><title>Fichier 8</title><g id="Calque_2" data-name="Calque 2"><g id="Ñëîé_1" data-name="Ñëîé 1"><path class="cls-1" d="M43.5,220.11l57.76-32.94c2.12-1.22,1.85-3.35-.59-4.76L67.44,163.22c-2.44-1.41-6.13-1.56-8.25-.34L1.43,195.82C-.69,197-.42,199.17,2,200.58l33.24,19.19C37.7,221.18,41.39,221.33,43.5,220.11Z"/><path class="cls-1" d="M279.42,249.71,164.79,183.53c-3.24-1.87-2.83-5.14.91-7.3l78.05-45c3.75-2.16,9.41-2.39,12.65-.52L371,196.84c3.24,1.87,2.83,5.14-.91,7.3l-78.05,45.05C288.32,251.35,282.66,251.58,279.42,249.71Z"/><path class="cls-2" d="M403.65,69.86,283.93.74a4.84,4.84,0,0,0-4.06-.5h0l-.22.08-.05,0L275.28,2l3.89,1.9-.06.21-19.5,88.76c-1,4.45,1,9.63,4.37,11.59L380.82,171.9l-.42,5,4.73-1.84a6.61,6.61,0,0,0,3.38-4.81L408,81.44C409,77,407,71.81,403.65,69.86Z"/><path class="cls-3" d="M403.65,69.86,283.93.74a4.84,4.84,0,0,0-4.06-.5h0l-.22.08-.05,0L275.28,2l3.89,1.9-.06.21L266.26,62.6l58.58,45.64,82.59-33.61A9.24,9.24,0,0,0,403.65,69.86Z"/><path class="cls-4" d="M399.13,83.5l9.12-3.88a11.45,11.45,0,0,0-3.69-9.12l-14.43,6.07Z"/><path class="cls-5" d="M271.66,6.92c1-4.44,4.51-6.46,7.9-4.5L399.27,71.54c3.39,1.95,5.34,7.14,4.37,11.58l-19.5,88.76c-1,4.44-4.51,6.46-7.9,4.51L256.52,107.27c-3.39-2-5.34-7.15-4.36-11.59"/><path class="cls-6" d="M400.42,71.11,280.7,2A4.72,4.72,0,0,0,276,1.79a4.92,4.92,0,0,1,3.57.63L399.27,71.53c3.39,2,5.34,7.15,4.37,11.59l-19.5,88.76a6.73,6.73,0,0,1-3.19,4.71c2-.44,3.71-2.28,4.34-5.13l19.5-88.76C405.76,78.26,403.81,73.07,400.42,71.11Z"/><path class="cls-6" d="M373.64,169.78l-112.59-65c-3.1-1.79-4.89-6.54-4-10.6L274.9,13c.89-4.06,4.13-5.91,7.23-4.12l112.59,65c3.1,1.79,4.89,6.53,4,10.6l-17.85,81.22C380,169.73,376.74,171.57,373.64,169.78Z"/><path class="cls-2" d="M373.64,169.78l-112.59-65c-3.1-1.79-4.89-6.54-4-10.6L274.9,13c.89-4.06,4.13-5.91,7.23-4.12l112.59,65c3.1,1.79,4.89,6.53,4,10.6l-17.85,81.22C380,169.73,376.74,171.57,373.64,169.78Z"/><path class="cls-7" d="M374.63,169.38l-112.6-65c-3.1-1.79-4.88-6.54-4-10.6l17.84-81.23a6.24,6.24,0,0,1,2.84-4.27c-1.79.46-3.26,2.13-3.82,4.67L257.06,94.21c-.9,4.06.89,8.81,4,10.6l112.59,65a4.33,4.33,0,0,0,4.4.16A4.52,4.52,0,0,1,374.63,169.38Z"/><path class="cls-2" d="M377.89,179.4l-16.36-2.17-105.64-61c-3.39-2-9.3-1.72-13.21.54L167.82,160l-9.89-1.3v5.61h0a3.84,3.84,0,0,0,2.27,3.47l119.72,69.12c3.38,2,9.3,1.71,13.21-.55l81.52-47.05c2.2-1.27,3.3-2.9,3.23-4.44h0Z"/><path class="cls-3" d="M298.52,140.86l-7.5-4.34H208.5L167.82,160l-9.89-1.3v5.61h0a3.84,3.84,0,0,0,2.27,3.47l119.72,69.12a12.39,12.39,0,0,0,6.82,1.28Z"/><path class="cls-7" d="M162.32,159.27l-4.39-.58v5.61h0a3.84,3.84,0,0,0,2.27,3.47l2.11,1.22Z"/><path class="cls-4" d="M281.13,237.45a15.33,15.33,0,0,0,11.23-.7V224.23H281.13Z"/><path class="cls-5" d="M279.93,231.28,160.21,162.16c-3.39-1.95-3-5.37.95-7.63l81.52-47c3.91-2.26,9.82-2.51,13.21-.55l119.72,69.12c3.39,1.95,3,5.37-.95,7.63l-81.52,47C289.23,233,283.31,233.24,279.93,231.28Z"/><path class="cls-6" d="M374.66,181.63l-81.52,47.05c-3.91,2.26-9.83,2.51-13.21.55L160.21,160.11a4.5,4.5,0,0,1-2.11-2.3c-.53,1.6.15,3.22,2.11,4.35l119.72,69.12c3.38,2,9.3,1.71,13.21-.55l81.52-47c2.63-1.52,3.67-3.56,3-5.33A6.3,6.3,0,0,1,374.66,181.63Z"/><path class="cls-7" d="M211.13,139.28l-5.42-3.13c-.43-.25-.38-.69.12-1l6.4-3.69a1.88,1.88,0,0,1,1.69-.07l5.42,3.13c.43.25.38.69-.12,1l-6.4,3.69A1.88,1.88,0,0,1,211.13,139.28Z"/><path class="cls-7" d="M219.49,144.11,214.08,141c-.44-.25-.38-.69.12-1l6.39-3.69a1.9,1.9,0,0,1,1.7-.07l5.42,3.13c.43.25.38.69-.13,1L221.19,144A1.9,1.9,0,0,1,219.49,144.11Z"/><path class="cls-7" d="M227.86,148.94l-5.42-3.13c-.43-.25-.38-.69.12-1l6.4-3.69a1.88,1.88,0,0,1,1.69-.07l5.42,3.13c.44.25.38.69-.12,1l-6.4,3.69A1.88,1.88,0,0,1,227.86,148.94Z"/><path class="cls-7" d="M239.43,145,234,141.82c-.43-.25-.38-.69.12-1l5.37-3.09a1.86,1.86,0,0,1,1.7-.07l5.41,3.12c.44.25.38.69-.12,1l-5.37,3.1A1.88,1.88,0,0,1,239.43,145Z"/><path class="cls-7" d="M247.79,149.78l-5.41-3.13c-.44-.25-.38-.69.12-1l5.36-3.09a1.87,1.87,0,0,1,1.7-.07l5.42,3.12c.43.25.38.69-.12,1l-5.37,3.1A1.9,1.9,0,0,1,247.79,149.78Z"/><path class="cls-7" d="M256.16,154.61l-5.42-3.13c-.43-.25-.38-.69.12-1l5.37-3.1a1.93,1.93,0,0,1,1.7-.07l5.41,3.13c.44.25.38.69-.12,1l-5.37,3.1A1.88,1.88,0,0,1,256.16,154.61Z"/><path class="cls-7" d="M264.52,159.44l-5.41-3.13c-.44-.25-.38-.69.12-1l5.36-3.1a1.9,1.9,0,0,1,1.7-.07l5.42,3.13c.43.25.38.69-.12,1l-5.37,3.1A1.9,1.9,0,0,1,264.52,159.44Z"/><path class="cls-7" d="M272.89,164.27l-5.42-3.13c-.43-.25-.38-.69.12-1l5.37-3.1a1.9,1.9,0,0,1,1.7-.07l5.41,3.13c.44.25.38.69-.12,1l-5.37,3.1A1.88,1.88,0,0,1,272.89,164.27Z"/><path class="cls-7" d="M281.25,169.1,275.84,166c-.44-.25-.38-.69.12-1l5.36-3.1a1.9,1.9,0,0,1,1.7-.07l5.42,3.13c.43.25.38.69-.12,1L283,169A1.9,1.9,0,0,1,281.25,169.1Z"/><path class="cls-7" d="M289.62,173.93l-5.42-3.13c-.43-.25-.38-.69.12-1l5.37-3.1a1.9,1.9,0,0,1,1.7-.07l5.41,3.13c.44.25.38.69-.12,1l-5.37,3.1A1.88,1.88,0,0,1,289.62,173.93Z"/><path class="cls-7" d="M298,178.76l-5.41-3.13c-.44-.25-.38-.69.12-1l5.37-3.1a1.88,1.88,0,0,1,1.69-.07l5.42,3.13c.43.25.38.69-.12,1l-5.37,3.1A1.9,1.9,0,0,1,298,178.76Z"/><path class="cls-7" d="M306.35,183.59l-5.42-3.13c-.43-.25-.38-.69.12-1l5.37-3.1a1.9,1.9,0,0,1,1.7-.07l5.41,3.13c.44.25.38.69-.12,1l-5.37,3.1A1.88,1.88,0,0,1,306.35,183.59Z"/><path class="cls-7" d="M314.71,188.42l-5.41-3.13c-.44-.25-.38-.69.12-1l5.37-3.1a1.88,1.88,0,0,1,1.69-.07l5.42,3.13c.43.25.38.69-.12,1l-5.37,3.1A1.9,1.9,0,0,1,314.71,188.42Z"/><path class="cls-7" d="M251.75,142.66l-5.41-3.12c-.44-.25-.38-.69.12-1l5.36-3.1a1.9,1.9,0,0,1,1.7-.07l5.42,3.13c.43.25.38.69-.12,1l-5.37,3.09A1.86,1.86,0,0,1,251.75,142.66Z"/><path class="cls-7" d="M243.26,137.76l-5.41-3.12c-.44-.26-.38-.69.12-1l5.36-3.1a1.9,1.9,0,0,1,1.7-.07l5.42,3.12c.43.26.38.69-.12,1l-5.37,3.1A1.9,1.9,0,0,1,243.26,137.76Z"/><path class="cls-7" d="M234.76,132.85l-11.67-6.73c-.43-.25-.38-.69.12-1l5.37-3.1a1.9,1.9,0,0,1,1.7-.07l11.66,6.73c.44.26.39.69-.12,1l-5.36,3.1A1.9,1.9,0,0,1,234.76,132.85Z"/><path class="cls-7" d="M240.7,126.88l-9.46-5.46c-.44-.25-.38-.69.12-1l5.36-3.1a1.9,1.9,0,0,1,1.7-.07l9.47,5.46c.43.26.38.69-.12,1l-5.37,3.1A1.9,1.9,0,0,1,240.7,126.88Z"/><path class="cls-7" d="M260.12,147.49l-5.42-3.12c-.43-.25-.38-.69.12-1l5.37-3.1a1.9,1.9,0,0,1,1.7-.07l5.41,3.13c.44.25.38.69-.12,1l-5.37,3.09A1.84,1.84,0,0,1,260.12,147.49Z"/><path class="cls-7" d="M268.48,152.32l-5.41-3.12c-.44-.25-.38-.69.12-1l5.37-3.1a1.88,1.88,0,0,1,1.69-.07l5.42,3.13c.43.25.38.69-.12,1l-5.37,3.09A1.86,1.86,0,0,1,268.48,152.32Z"/><path class="cls-7" d="M276.85,157.15,271.43,154c-.43-.25-.38-.69.12-1l5.37-3.1a1.9,1.9,0,0,1,1.7-.07L284,153c.44.25.38.68-.12,1l-5.37,3.1A1.88,1.88,0,0,1,276.85,157.15Z"/><path class="cls-7" d="M285.21,162l-5.41-3.12c-.44-.26-.38-.69.12-1l5.37-3.1a1.88,1.88,0,0,1,1.69-.07l5.42,3.12c.43.26.38.69-.12,1l-5.37,3.1A1.9,1.9,0,0,1,285.21,162Z"/><path class="cls-7" d="M293.58,166.81l-5.42-3.12c-.43-.26-.38-.69.12-1l5.37-3.1a1.9,1.9,0,0,1,1.7-.07l5.41,3.12c.44.26.38.69-.12,1l-5.36,3.1A1.9,1.9,0,0,1,293.58,166.81Z"/><path class="cls-7" d="M301.94,171.64l-5.41-3.12c-.44-.26-.38-.69.12-1l5.37-3.1a1.88,1.88,0,0,1,1.69-.07l5.42,3.12c.43.25.38.69-.12,1l-5.37,3.1A1.9,1.9,0,0,1,301.94,171.64Z"/><path class="cls-7" d="M310.31,176.47l-5.42-3.13c-.43-.25-.38-.68.12-1l5.37-3.1a1.9,1.9,0,0,1,1.7-.07l5.41,3.12c.44.25.38.69-.12,1L312,176.4A1.9,1.9,0,0,1,310.31,176.47Z"/><path class="cls-7" d="M318.67,181.3l-5.41-3.13c-.44-.25-.38-.69.12-1l5.37-3.09a1.84,1.84,0,0,1,1.69-.07l5.42,3.12c.43.25.38.69-.12,1l-5.37,3.1A1.9,1.9,0,0,1,318.67,181.3Z"/><path class="cls-7" d="M327,186.13,321.62,183c-.43-.25-.38-.69.12-1l5.37-3.09a1.86,1.86,0,0,1,1.7-.07l5.41,3.12c.44.25.38.69-.12,1l-5.36,3.1A1.9,1.9,0,0,1,327,186.13Z"/><path class="cls-7" d="M341.91,194.72l-11.82-6.83c-.43-.25-.38-.69.12-1l5.37-3.09a1.9,1.9,0,0,1,1.7-.08l11.82,6.83c.43.25.38.69-.13,1l-5.36,3.1A1.9,1.9,0,0,1,341.91,194.72Z"/><path class="cls-7" d="M358.2,185.31l-10-5.75c-.43-.26-.38-.69.12-1l5.37-3.1a1.9,1.9,0,0,1,1.7-.07l10,5.76c.44.25.38.69-.12,1l-5.37,3.09A1.84,1.84,0,0,1,358.2,185.31Z"/><path class="cls-7" d="M274.77,146.55l-5.42-3.13c-.43-.25-.38-.69.12-1l5.37-3.1a1.9,1.9,0,0,1,1.7-.07L282,142.4c.44.25.38.69-.12,1l-5.37,3.1A1.88,1.88,0,0,1,274.77,146.55Z"/><path class="cls-7" d="M266.19,141.6l-5.41-3.13c-.44-.25-.38-.69.12-1l5.37-3.1a1.88,1.88,0,0,1,1.69-.07l5.42,3.13c.43.25.38.69-.12,1l-5.37,3.1A1.9,1.9,0,0,1,266.19,141.6Z"/><path class="cls-7" d="M257.62,136.65l-5.42-3.13c-.43-.25-.38-.69.13-1l5.36-3.1a1.9,1.9,0,0,1,1.7-.07l5.42,3.13c.43.25.38.69-.13,1l-5.36,3.1A1.9,1.9,0,0,1,257.62,136.65Z"/><path class="cls-7" d="M249.05,131.7l-5.42-3.13c-.43-.25-.38-.69.12-1l5.37-3.1a1.9,1.9,0,0,1,1.7-.07l5.41,3.13c.44.25.38.69-.12,1l-5.37,3.1A1.88,1.88,0,0,1,249.05,131.7Z"/><path class="cls-7" d="M283.13,151.38l-5.41-3.13c-.44-.25-.39-.69.12-1l5.36-3.1a1.9,1.9,0,0,1,1.7-.07l5.42,3.13c.43.25.38.69-.12,1l-5.37,3.1A1.9,1.9,0,0,1,283.13,151.38Z"/><path class="cls-7" d="M291.5,156.21l-5.42-3.13c-.43-.25-.38-.69.12-1l5.37-3.1a1.9,1.9,0,0,1,1.7-.07l5.41,3.13c.44.25.38.69-.12,1l-5.37,3.1A1.88,1.88,0,0,1,291.5,156.21Z"/><path class="cls-7" d="M299.86,161l-5.41-3.13c-.44-.25-.38-.69.12-1l5.36-3.1a1.9,1.9,0,0,1,1.7-.07l5.42,3.13c.43.25.38.69-.12,1l-5.37,3.1A1.9,1.9,0,0,1,299.86,161Z"/><path class="cls-7" d="M308.23,165.87l-5.42-3.13c-.43-.25-.38-.69.12-1l5.37-3.1a1.9,1.9,0,0,1,1.7-.07l5.41,3.13c.44.25.38.69-.12,1l-5.37,3.1A1.88,1.88,0,0,1,308.23,165.87Z"/><path class="cls-7" d="M316.59,170.7l-5.41-3.13c-.44-.25-.38-.69.12-1l5.36-3.1a1.9,1.9,0,0,1,1.7-.07l5.42,3.13c.43.25.38.69-.12,1l-5.37,3.1A1.9,1.9,0,0,1,316.59,170.7Z"/><path class="cls-7" d="M325,175.53l-5.42-3.13c-.43-.25-.38-.69.12-1l5.37-3.1a1.9,1.9,0,0,1,1.7-.07l5.41,3.13c.44.25.38.69-.12,1l-5.37,3.1A1.88,1.88,0,0,1,325,175.53Z"/><path class="cls-7" d="M333.32,180.36l-5.41-3.13c-.44-.25-.38-.69.12-1l5.36-3.1a1.9,1.9,0,0,1,1.7-.07l5.42,3.13c.43.25.38.69-.12,1l-5.37,3.1A1.9,1.9,0,0,1,333.32,180.36Z"/><path class="cls-7" d="M341.69,185.19l-5.42-3.13c-.43-.25-.38-.69.12-1l5.37-3.1a1.9,1.9,0,0,1,1.7-.07l5.41,3.13c.44.25.38.69-.12,1l-5.37,3.1A1.88,1.88,0,0,1,341.69,185.19Z"/><path class="cls-7" d="M350.05,190l-5.41-3.13c-.44-.25-.38-.69.12-1l5.37-3.1a1.88,1.88,0,0,1,1.69-.07l5.42,3.13c.43.25.38.69-.12,1l-5.37,3.1A1.9,1.9,0,0,1,350.05,190Z"/><path class="cls-7" d="M270.36,134.6,265,131.48c-.44-.25-.38-.69.12-1l5.36-3.1a1.9,1.9,0,0,1,1.7-.07l5.42,3.13c.43.25.38.68-.12,1l-5.37,3.1A1.86,1.86,0,0,1,270.36,134.6Z"/><path class="cls-7" d="M262,129.8l-5.42-3.13c-.43-.25-.38-.69.12-1l5.37-3.1a1.9,1.9,0,0,1,1.7-.07l5.41,3.13c.44.25.38.69-.12,1l-5.36,3.1A1.9,1.9,0,0,1,262,129.8Z"/><path class="cls-7" d="M253.72,125l-5.42-3.12c-.44-.26-.38-.69.12-1l5.37-3.1a1.88,1.88,0,0,1,1.69-.07l5.42,3.12c.44.26.38.69-.12,1l-5.37,3.1A1.88,1.88,0,0,1,253.72,125Z"/><path class="cls-7" d="M245.39,120.19,240,117.06c-.43-.25-.38-.69.13-1l5.36-3.1a1.9,1.9,0,0,1,1.7-.07l5.42,3.13c.43.25.38.69-.12,1l-5.37,3.1A1.9,1.9,0,0,1,245.39,120.19Z"/><path class="cls-7" d="M254,115.25l-5.42-3.13c-.43-.25-.38-.69.13-1l1.77-1a1.9,1.9,0,0,1,1.7-.07l5.41,3.13c.44.25.38.69-.12,1l-1.77,1A1.9,1.9,0,0,1,254,115.25Z"/><path class="cls-7" d="M264.81,121.52l-5.41-3.13c-.44-.25-.38-.69.12-1l1.77-1a1.86,1.86,0,0,1,1.7-.07l5.42,3.12c.43.25.38.69-.13,1l-1.77,1A1.9,1.9,0,0,1,264.81,121.52Z"/><path class="cls-7" d="M273.1,126.3l-5.41-3.12c-.44-.26-.39-.69.12-1l1.77-1a1.9,1.9,0,0,1,1.7-.07l5.41,3.13c.44.25.39.69-.12,1l-1.77,1A1.9,1.9,0,0,1,273.1,126.3Z"/><path class="cls-7" d="M281.39,131.09,276,128c-.43-.25-.38-.69.13-1l1.77-1a1.9,1.9,0,0,1,1.7-.07L285,129c.44.25.38.69-.12,1l-1.77,1A1.9,1.9,0,0,1,281.39,131.09Z"/><path class="cls-7" d="M289.68,135.87l-5.42-3.12c-.43-.25-.38-.69.12-1l1.78-1a1.9,1.9,0,0,1,1.7-.07l5.41,3.13c.44.25.38.69-.12,1l-1.77,1A1.9,1.9,0,0,1,289.68,135.87Z"/><path class="cls-7" d="M336,162.59l-5.41-3.13c-.44-.25-.38-.69.12-1l1.77-1a1.9,1.9,0,0,1,1.7-.07l5.42,3.13c.43.25.38.69-.12,1l-1.78,1A1.9,1.9,0,0,1,336,162.59Z"/><path class="cls-7" d="M344.24,167.38l-5.41-3.13c-.44-.25-.38-.69.12-1l1.77-1a1.9,1.9,0,0,1,1.7-.07l5.42,3.13c.43.25.38.69-.13,1l-1.77,1A1.9,1.9,0,0,1,344.24,167.38Z"/><path class="cls-7" d="M352.53,172.16,347.12,169c-.44-.25-.39-.69.12-1l1.77-1a1.9,1.9,0,0,1,1.7-.07l5.41,3.13c.44.25.39.69-.12,1l-1.77,1A1.9,1.9,0,0,1,352.53,172.16Z"/><path class="cls-7" d="M360.82,177l-5.42-3.13c-.43-.25-.38-.69.13-1l1.77-1a1.86,1.86,0,0,1,1.7-.07l5.41,3.12c.44.25.38.69-.12,1l-1.77,1A1.9,1.9,0,0,1,360.82,177Z"/><path class="cls-7" d="M278.73,139.43l-5.42-3.12c-.43-.25-.38-.69.12-1l5.37-3.1a1.9,1.9,0,0,1,1.7-.07l5.41,3.12c.44.26.38.69-.12,1l-5.37,3.1A1.88,1.88,0,0,1,278.73,139.43Z"/><path class="cls-7" d="M287.09,144.26l-5.41-3.12c-.44-.26-.38-.69.12-1l5.36-3.1a1.9,1.9,0,0,1,1.7-.07l5.42,3.12c.43.26.38.69-.12,1l-5.37,3.1A1.9,1.9,0,0,1,287.09,144.26Z"/><path class="cls-7" d="M295.46,149.09,290,146c-.43-.26-.38-.69.12-1l5.37-3.1a1.9,1.9,0,0,1,1.7-.07l5.41,3.12c.44.26.38.69-.12,1l-5.37,3.1A1.88,1.88,0,0,1,295.46,149.09Z"/><path class="cls-7" d="M303.82,153.92l-5.41-3.13c-.44-.25-.38-.68.12-1l5.36-3.1a1.9,1.9,0,0,1,1.7-.07l5.42,3.12c.43.25.38.69-.12,1l-5.37,3.1A1.9,1.9,0,0,1,303.82,153.92Z"/><path class="cls-7" d="M312.19,158.75l-5.42-3.13c-.43-.25-.38-.69.12-1l5.37-3.09a1.86,1.86,0,0,1,1.7-.07l5.41,3.12c.44.25.38.69-.12,1l-5.37,3.1A1.88,1.88,0,0,1,312.19,158.75Z"/><path class="cls-7" d="M320.55,163.58l-5.41-3.13c-.44-.25-.38-.69.12-1l5.37-3.09a1.84,1.84,0,0,1,1.69-.07l5.42,3.12c.43.25.38.69-.12,1l-5.37,3.1A1.9,1.9,0,0,1,320.55,163.58Z"/><path class="cls-7" d="M328.92,168.41l-5.42-3.13c-.43-.25-.38-.69.12-1l5.37-3.09a1.86,1.86,0,0,1,1.7-.07l5.41,3.12c.44.25.38.69-.12,1l-5.37,3.1A1.88,1.88,0,0,1,328.92,168.41Z"/><path class="cls-7" d="M337.28,173.24l-5.41-3.13c-.44-.25-.38-.69.12-1l5.37-3.1a1.91,1.91,0,0,1,1.69-.07l5.42,3.13c.43.25.38.69-.12,1l-5.37,3.1A1.9,1.9,0,0,1,337.28,173.24Z"/><path class="cls-7" d="M345.65,178.07l-5.42-3.13c-.43-.25-.38-.69.12-1l5.37-3.1a1.9,1.9,0,0,1,1.7-.07l5.41,3.13c.44.25.38.69-.12,1l-5.37,3.1A1.88,1.88,0,0,1,345.65,178.07Z"/><path class="cls-7" d="M230.9,140l-16-9.21c-.44-.25-.38-.69.12-1l5.37-3.1a1.9,1.9,0,0,1,1.7-.07l16,9.21c.43.25.38.69-.12,1L232.6,140A1.9,1.9,0,0,1,230.9,140Z"/><path class="cls-7" d="M333.67,199.36l-15.95-9.21c-.44-.25-.38-.69.12-1l5.37-3.1a1.88,1.88,0,0,1,1.69-.07l16,9.21c.43.25.38.69-.13,1l-5.36,3.1A1.9,1.9,0,0,1,333.67,199.36Z"/><path class="cls-7" d="M300.22,190.72l-5.42-3.13c-.43-.25-.38-.69.12-1l6.4-3.69a1.88,1.88,0,0,1,1.69-.07l5.42,3.13c.43.25.38.68-.12,1l-6.4,3.7A1.88,1.88,0,0,1,300.22,190.72Z"/><path class="cls-7" d="M239.47,155.64l-8.66-5c-.44-.25-.38-.69.12-1l6.39-3.69a1.9,1.9,0,0,1,1.7-.07l8.66,5c.44.25.38.69-.12,1l-6.39,3.69A1.9,1.9,0,0,1,239.47,155.64Z"/><path class="cls-7" d="M292.16,186.06l-8.67-5c-.43-.25-.38-.69.13-1l6.39-3.69a1.9,1.9,0,0,1,1.7-.07l8.66,5c.43.25.38.69-.12,1l-6.4,3.69A1.88,1.88,0,0,1,292.16,186.06Z"/><path class="cls-7" d="M251.54,162.61l-8.66-5c-.44-.25-.39-.69.12-1l6.39-3.69a1.9,1.9,0,0,1,1.7-.07l8.66,5c.44.25.38.69-.12,1l-6.39,3.69A1.9,1.9,0,0,1,251.54,162.61Z"/><path class="cls-7" d="M251.15,152.9l37.66,21.75a.52.52,0,0,1,0,1l-6.52,3.76a1.86,1.86,0,0,1-1.69,0l-37.67-21.75Z"/><path class="cls-7" d="M323.6,199.47l6,3.49c.36.2.31.56-.1.8l-2.62,1.51a1.56,1.56,0,0,1-1.39.06l-6-3.49c-.36-.2-.31-.56.1-.8l2.62-1.51A1.56,1.56,0,0,1,323.6,199.47Z"/><path class="cls-7" d="M315.16,194.6l6,3.49c.35.2.31.56-.1.8l-2.62,1.51a1.56,1.56,0,0,1-1.39.06l-6-3.49c-.36-.2-.32-.56.1-.8l2.61-1.51A1.56,1.56,0,0,1,315.16,194.6Z"/><path class="cls-7" d="M306.8,189.77l6,3.49c.36.2.31.56-.1.8l-2.62,1.51a1.56,1.56,0,0,1-1.39.06l-6-3.49c-.36-.2-.31-.56.1-.8l2.62-1.51A1.56,1.56,0,0,1,306.8,189.77Z"/><path class="cls-7" d="M319.78,191.94l6,3.48c.36.21.32.57-.1.8l-2.61,1.51a1.52,1.52,0,0,1-1.39.06l-6-3.48c-.35-.21-.31-.57.1-.81l2.62-1.51A1.55,1.55,0,0,1,319.78,191.94Z"/><polygon class="cls-5" points="352.82 97.7 307.76 71.68 308.35 68.75 353.4 94.77 352.82 97.7"/><polygon class="cls-5" points="336.69 102.64 305.23 84.48 305.81 81.55 337.27 99.71 336.69 102.64"/><polygon class="cls-6" points="333.71 93.79 306.5 78.08 307.08 75.15 334.29 90.86 333.71 93.79"/><polygon class="cls-8" points="351.56 104.1 337.95 96.24 338.53 93.31 352.14 101.17 351.56 104.1"/><polygon class="cls-5" points="302.97 46.13 289.36 38.27 289.94 35.34 303.55 43.2 302.97 46.13"/><polygon class="cls-6" points="301.49 52.93 287.88 45.08 288.46 42.15 302.07 50.01 301.49 52.93"/><polygon class="cls-5" points="368.27 147.36 354.66 139.5 355.24 136.57 368.85 144.43 368.27 147.36"/><polygon class="cls-5" points="298.54 66.55 284.93 58.69 285.51 55.77 299.12 63.62 298.54 66.55"/><path class="cls-8" d="M327.93,68.66a1.69,1.69,0,0,1-2.44.75,2.13,2.13,0,0,1-.88-2.67,1.7,1.7,0,0,1,2.45-.75A2.11,2.11,0,0,1,327.93,68.66Z"/><path class="cls-6" d="M333.79,72a1.69,1.69,0,0,1-2.44.75,2.13,2.13,0,0,1-.88-2.67,1.71,1.71,0,0,1,2.45-.75A2.12,2.12,0,0,1,333.79,72Z"/><path class="cls-5" d="M339.65,75.42a1.69,1.69,0,0,1-2.44.76,2.13,2.13,0,0,1-.88-2.67,1.7,1.7,0,0,1,2.45-.76A2.12,2.12,0,0,1,339.65,75.42Z"/><path class="cls-8" d="M345.51,78.81a1.69,1.69,0,0,1-2.44.75,2.13,2.13,0,0,1-.88-2.67,1.7,1.7,0,0,1,2.45-.75A2.11,2.11,0,0,1,345.51,78.81Z"/><path class="cls-6" d="M245.76,198.33l-34.07-19.67c-1-.58-.87-1.58.28-2.24l20.56-11.87a4.31,4.31,0,0,1,3.87-.16l34.07,19.67c1,.58.87,1.58-.27,2.24l-20.57,11.87A4.31,4.31,0,0,1,245.76,198.33Z"/><rect class="cls-7" x="210.72" y="104.94" width="6.5" height="14.04" transform="translate(435.96 16.9) rotate(129.2)"/><path class="cls-7" d="M219,119a5.07,5.07,0,0,0,2.91-3.56c.23-1.45-.69-2.2-2.06-1.68a5.07,5.07,0,0,0-2.9,3.56C216.69,118.78,217.61,119.53,219,119Z"/><rect class="cls-7" x="199.6" y="97.37" width="10.54" height="14.34" transform="translate(415.37 11.84) rotate(129.2)"/><path class="cls-3" d="M212.37,106.46l3.69,3a8.4,8.4,0,0,1-4.12,5l-3.68-3A8.42,8.42,0,0,1,212.37,106.46Z"/><path class="cls-7" d="M209.74,113.32a8.25,8.25,0,0,0,4.71-5.78c.38-2.34-1.11-3.56-3.33-2.72a8.25,8.25,0,0,0-4.71,5.78C206,112.94,207.52,114.16,209.74,113.32Z"/><path class="cls-7" d="M198.63,104.25a8.23,8.23,0,0,0,4.71-5.77c.38-2.35-1.12-3.57-3.34-2.72a8.23,8.23,0,0,0-4.71,5.77C194.91,103.88,196.4,105.1,198.63,104.25Z"/><path class="cls-5" d="M198.93,102.41a4.66,4.66,0,0,0,2.66-3.27c.22-1.33-.63-2-1.89-1.54a4.66,4.66,0,0,0-2.66,3.27C196.82,102.2,197.67,102.88,198.93,102.41Z"/><path class="cls-5" d="M219,114.89c.53.43,1,.23,1.16-.45a2.35,2.35,0,0,0-.77-2c-.53-.44-1-.24-1.16.44A2.38,2.38,0,0,0,219,114.89Z"/><path class="cls-7" d="M108.36,225.6a11,11,0,0,1-5.68-1.6L95,219.44a.87.87,0,0,1-.31-1.19.88.88,0,0,1,1.19-.31l7.7,4.56a9.26,9.26,0,0,0,14-8.59l-.17-2.32c-2.7-38-7.73-108.73,22.08-116.36a231.71,231.71,0,0,0,22.43-7c15.3-5.48,16.35-5.18,37.44,10.75a.87.87,0,1,1-1,1.39c-21-15.82-21.22-15.72-35.8-10.5a234.87,234.87,0,0,1-22.59,7c-28.4,7.27-23.44,77.06-20.77,114.55l.16,2.33A10.82,10.82,0,0,1,114.11,224,11,11,0,0,1,108.36,225.6Z"/><ellipse class="cls-1" cx="166.83" cy="223.42" rx="28.2" ry="16.28"/><path class="cls-2" d="M180.29,216.44a4.34,4.34,0,0,1,2.45,4.35,7.54,7.54,0,0,1-.35,2.13,3.59,3.59,0,0,1-4.81,1.47c-2.64-1-8.52-6.56-8.74-10.17C168.44,207.51,176.11,214.65,180.29,216.44Z"/><path class="cls-2" d="M164.75,227.53s.64,3.87.33,4.58-2.15,2.22-4.87,1.9-10.54-3-12.28-8.18c-2.7-8,15.1.6,15.1.6Z"/><path class="cls-5" d="M157.11,165.71l-.6,60.37a4.23,4.23,0,0,0,3.29,4.19,7.28,7.28,0,0,0,.73.09,3.79,3.79,0,0,0,3.59-1.48,4.41,4.41,0,0,0,.8-2.44l.78-25.77,3.84-23,5.33,40.79a3.5,3.5,0,0,0,1.46,2.68,4.08,4.08,0,0,0,2.43.66,4.45,4.45,0,0,0,3.22-1.59,3.15,3.15,0,0,0,.77-2.18l-2.11-24.54-.78-31.3Z"/><path class="cls-9" d="M164.93,111.66l.95,5.5a2.52,2.52,0,0,1-2.06,2.4c-2.09.52-2.74-.83-2.74-.83l-1-6.2Z"/><path class="cls-9" d="M153.74,111.83c3.5,3.49,8.85,3.78,11.95.65s2.76-8.49-.74-12-8.85-3.78-11.94-.65S150.24,108.34,153.74,111.83Z"/><path class="cls-7" d="M164.68,117.26c.15-.05,8.89-5.69,12.13.21,5.27,9.61,5,40.54,3.29,44.55-1.54,3.71-5.38,6.44-8.08,8a16.24,16.24,0,0,1-7.85,2.24c-2.73,0-8-2.41-7.78-6,.87-16.43-.58-30.28-1.92-43.72C154.47,122.53,156.15,120.72,164.68,117.26Z"/><path class="cls-3" d="M169.54,177.62l5.33,40.79a3.5,3.5,0,0,0,1.46,2.68,4.83,4.83,0,0,0,.45.26c-1.1-.83-4.33-35.06-4.92-38.87S169.54,177.62,169.54,177.62Z"/><polygon class="cls-9" points="136.71 119.08 131.96 103.51 134.47 102.47 140.07 114.67 136.71 119.08"/><polygon class="cls-9" points="184.62 106.81 181.06 90.6 178.22 90.63 179.29 104.08 184.62 106.81"/><path class="cls-7" d="M154.47,122.53s-8.54,1.7-14-8.24a1.35,1.35,0,0,0-2.25-.24c-.87,1.33-2,3.36-1.43,5.55,2.64,9.72,17,11.87,19.58,17.5S154.47,122.53,154.47,122.53Z"/><path class="cls-7" d="M170.23,115.25s6.76.52,7.74-5.34a45.18,45.18,0,0,0,.68-5.85,1.18,1.18,0,0,1,1.32-1.15c1.62.2,4.13.69,4.47,1.77.51,1.62,1.46,9.57-5.22,21.77C174.85,134.44,170.23,115.25,170.23,115.25Z"/><path class="cls-9" d="M181.07,90.64,181,88.8a3.77,3.77,0,0,0-.55-1.85l-1.88-3.08-.49-.61a1.41,1.41,0,0,0-1.87-.32l-.43.27a1.76,1.76,0,0,0-.82,1.61l1,2.63-1.23-.24a.44.44,0,0,0-.51.35h0a.43.43,0,0,0,.27.48l2,.81,1.81,2.57Z"/><path class="cls-9" d="M131.89,103.59l-.57-1.76a3.79,3.79,0,0,1-.11-1.92l.72-3.53.25-.74a1.42,1.42,0,0,1,1.65-.94l.5.11A1.76,1.76,0,0,1,135.65,96v2.81l1.07-.64a.43.43,0,0,1,.6.15h0a.44.44,0,0,1-.09.54l-1.61,1.44-.94,3.42Z"/><path class="cls-3" d="M158.47,134.3c.78,3.55-1.41,31.11,5.7,37.94-2.73,0-8-2.41-7.78-6a218.17,218.17,0,0,0-.65-30.22c-2.79-3.61-10.46-5.91-15.26-10.54C140.83,125.59,157.7,130.79,158.47,134.3Z"/><path class="cls-6" d="M167.83,115.71l-1.22-1.25s-2,2-3.6,2.4a18,18,0,0,1-2.88.59l-.78,2.16S165.71,119.15,167.83,115.71Z"/><path class="cls-2" d="M158.87,109.31a1.06,1.06,0,0,1-1,0c-.51-.27-1.35-2.33-2.43-2.18-1.68.24-4.11,3.77-7.15-1.16-1.57-2.56-.65-3.94-1.41-5.39,0,0,.27.78,6.87-3.24s12,.88,13.67,3.68,2.76,8.3-1.57,11.4c-.72.51-5.35-.41-5.44-.79s1.14-1,.44-1.92A1.44,1.44,0,0,0,158.87,109.31Z"/><path class="cls-7" d="M97,220.49a.92.92,0,0,1-.45-.12L50.06,192.84a.87.87,0,0,1,.89-1.5l46.49,27.53a.87.87,0,0,1-.44,1.62Z"/><path class="cls-3" d="M0,179.75H0V54L50,41l9.2-5.32c2.12-1.22,5.81-1.06,8.25.35L76,40.94h26.66L94.79,162.29a2.4,2.4,0,0,1-1.42,2.21L43.5,202.13c-2.11,1.22-5.8,1.07-8.24-.34L2,182.6C.61,181.78-.07,180.73,0,179.75Z"/><path class="cls-5" d="M63,34.83A9.36,9.36,0,0,1,67.44,36L76,40.94h26.66V167a2.39,2.39,0,0,1-1.42,2.21L43.5,202.13a7.6,7.6,0,0,1-3.83.82L39.08,76.11Z"/><path class="cls-7" d="M43,202.39a9.36,9.36,0,0,1-6.59-.08V74.61H43Z"/><path class="cls-5" d="M43.5,76.12l57.76-32.94c2.12-1.22,1.85-3.35-.59-4.76L67.44,19.23c-2.44-1.4-6.13-1.56-8.25-.34L1.43,51.83C-.69,53.05-.42,55.18,2,56.59L35.26,75.78C37.7,77.19,41.39,77.34,43.5,76.12Z"/><path class="cls-10" d="M2,54.25,35.26,73.44c2.44,1.41,6.13,1.56,8.24.34l57.76-32.93a3.3,3.3,0,0,0,1.06-.94c.72,1.17.4,2.43-1.06,3.27L43.5,76.12c-2.11,1.22-5.8,1.07-8.24-.34L2,56.59C.12,55.5-.45,54,.37,52.77A4.57,4.57,0,0,0,2,54.25Z"/><path class="cls-2" d="M41.86,62.77,80.32,40.48c1-.57.87-1.57-.27-2.23l-15.56-9a4.27,4.27,0,0,0-3.85-.16L22.18,51.41c-1,.57-.87,1.56.27,2.22l15.56,9A4.27,4.27,0,0,0,41.86,62.77Z"/><path class="cls-5" d="M62.63,41.48l2.23-1.29c.13-.08.12-.21,0-.31l-2.15-1.24a.61.61,0,0,0-.54,0L59.9,39.91c-.13.08-.12.21,0,.3l2.15,1.25A.61.61,0,0,0,62.63,41.48Z"/><path class="cls-8" d="M55.18,45.76l2.23-1.29c.14-.08.12-.21,0-.3l-2.15-1.25a.59.59,0,0,0-.53,0l-2.23,1.29c-.14.08-.12.21,0,.31l2.15,1.24A.59.59,0,0,0,55.18,45.76Z"/><path class="cls-5" d="M47.74,50,50,48.75c.14-.07.12-.21,0-.3L47.77,47.2a.58.58,0,0,0-.53,0L45,48.47c-.13.08-.12.22,0,.31L47.2,50A.61.61,0,0,0,47.74,50Z"/><path class="cls-5" d="M40.29,54.32,42.52,53c.14-.08.12-.22,0-.31l-2.15-1.24a.56.56,0,0,0-.53,0l-2.23,1.29c-.14.08-.12.22,0,.31l2.15,1.24A.59.59,0,0,0,40.29,54.32Z"/><path class="cls-7" d="M80.32,40.48l0,0-.23-.15-15.56-9a4.24,4.24,0,0,0-3.85-.16L22.22,53.47c-.91-.65-1-1.54,0-2.06l38.46-22.3a4.27,4.27,0,0,1,3.85.16l15.56,9C81.19,38.91,81.31,39.91,80.32,40.48Z"/><path class="cls-2" d="M28.77,101,6.9,88.51a5.34,5.34,0,0,1-2.23-4.26V76.43c0-1.64,1-2.39,2.23-1.68L28.77,87.27A5.32,5.32,0,0,1,31,91.52v7.82C31,101,30,101.74,28.77,101Z"/><path class="cls-6" d="M5.82,74.51a2.18,2.18,0,0,0-.56,1.63V84a5.33,5.33,0,0,0,2.23,4.26l21.86,12.52a1.62,1.62,0,0,0,1.08.23,1.32,1.32,0,0,1-1.66.06L6.9,88.51a5.34,5.34,0,0,1-2.23-4.26V76.43C4.67,75.32,5.14,74.63,5.82,74.51Z"/><path class="cls-3" d="M22.19,92.53l-2-1.15a1.16,1.16,0,0,1-.48-.93V88.3c0-.35.21-.52.48-.36l2,1.16a1.14,1.14,0,0,1,.48.92v2.15C22.67,92.52,22.46,92.69,22.19,92.53Z"/><path class="cls-6" d="M15.48,88.66l-2-1.16a1.15,1.15,0,0,1-.49-.92V84.43c0-.36.22-.52.49-.36l2,1.15a1.17,1.17,0,0,1,.49.93v2.14C16,88.65,15.75,88.82,15.48,88.66Z"/><path class="cls-2" d="M28.77,157.54,6.9,145a5.34,5.34,0,0,1-2.23-4.26v-7.82c0-1.64,1-2.4,2.23-1.69l21.87,12.52A5.35,5.35,0,0,1,31,148v7.82C31,157.49,30,158.25,28.77,157.54Z"/><path class="cls-6" d="M5.82,131a2.16,2.16,0,0,0-.56,1.63v7.82a5.3,5.3,0,0,0,2.23,4.25l21.86,12.52a1.63,1.63,0,0,0,1.08.24,1.33,1.33,0,0,1-1.66.06L6.9,145a5.34,5.34,0,0,1-2.23-4.26v-7.82C4.67,131.83,5.14,131.13,5.82,131Z"/><path class="cls-8" d="M22.19,149l-2-1.16a1.14,1.14,0,0,1-.48-.92v-2.15c0-.35.21-.52.48-.36l2,1.15a1.16,1.16,0,0,1,.48.93v2.14C22.67,149,22.46,149.2,22.19,149Z"/><path class="cls-6" d="M15.48,145.17l-2-1.16a1.16,1.16,0,0,1-.49-.93v-2.14c0-.36.22-.52.49-.37l2,1.16a1.17,1.17,0,0,1,.49.93v2.14C16,145.16,15.75,145.32,15.48,145.17Z"/><path class="cls-2" d="M28.77,185.79,6.9,173.27A5.34,5.34,0,0,1,4.67,169v-7.82c0-1.64,1-2.39,2.23-1.68L28.77,172A5.34,5.34,0,0,1,31,176.29v7.82C31,185.75,30,186.5,28.77,185.79Z"/><path class="cls-6" d="M5.82,159.27a2.18,2.18,0,0,0-.56,1.63v7.82A5.32,5.32,0,0,0,7.49,173L29.35,185.5a1.56,1.56,0,0,0,1.08.23,1.3,1.3,0,0,1-1.66.06L6.9,173.27A5.34,5.34,0,0,1,4.67,169v-7.82C4.67,160.08,5.14,159.39,5.82,159.27Z"/><path class="cls-3" d="M22.19,177.3l-2-1.16a1.16,1.16,0,0,1-.48-.93v-2.14c0-.36.21-.53.48-.37l2,1.16a1.15,1.15,0,0,1,.48.93v2.14C22.67,177.29,22.46,177.45,22.19,177.3Z"/><path class="cls-6" d="M15.48,173.42l-2-1.16a1.15,1.15,0,0,1-.49-.92v-2.15c0-.35.22-.52.49-.36l2,1.16a1.15,1.15,0,0,1,.49.92v2.15C16,173.41,15.75,173.58,15.48,173.42Z"/><path class="cls-2" d="M28.77,129.28,6.9,116.76a5.33,5.33,0,0,1-2.23-4.25v-7.82c0-1.65,1-2.4,2.23-1.69l21.87,12.52A5.34,5.34,0,0,1,31,119.78v7.82C31,129.24,30,130,28.77,129.28Z"/><path class="cls-6" d="M5.82,102.77a2.14,2.14,0,0,0-.56,1.62v7.82a5.32,5.32,0,0,0,2.23,4.26L29.35,129a1.56,1.56,0,0,0,1.08.23,1.3,1.3,0,0,1-1.66.06L6.9,116.76a5.33,5.33,0,0,1-2.23-4.25v-7.82C4.67,103.57,5.14,102.88,5.82,102.77Z"/><path class="cls-3" d="M22.19,120.79l-2-1.16a1.16,1.16,0,0,1-.48-.93v-2.14c0-.36.21-.52.48-.37l2,1.16a1.15,1.15,0,0,1,.48.93v2.14C22.67,120.78,22.46,120.94,22.19,120.79Z"/><path class="cls-6" d="M15.48,116.91l-2-1.15a1.17,1.17,0,0,1-.49-.93v-2.14c0-.36.22-.53.49-.37l2,1.16a1.16,1.16,0,0,1,.49.93v2.14C16,116.91,15.75,117.07,15.48,116.91Z"/><path class="cls-7" d="M47.71,93,98.16,63.9a4.93,4.93,0,0,0,2-3.91V50.37c0-1.51-.92-2.2-2-1.55L47.71,78a4.9,4.9,0,0,0-2.05,3.91v9.62C45.66,93,46.58,93.68,47.71,93Z"/><path class="cls-11" d="M49.15,89.65,96.71,62.2a2.51,2.51,0,0,0,1-2V53c0-.76-.46-1.11-1-.78L49.15,79.65a2.49,2.49,0,0,0-1,2v7.24C48.12,89.63,48.58,90,49.15,89.65Z"/><path class="cls-5" d="M86.8,64.26l7.09-4.1a2.4,2.4,0,0,0,1-1.92h0c0-.74-.45-1.08-1-.76L86.8,61.57a2.43,2.43,0,0,0-1,1.93h0C85.79,64.24,86.24,64.58,86.8,64.26Z"/><path class="cls-2" d="M80.75,66.41c0,.74.52,1,1.16.67a2.58,2.58,0,0,0,1.17-2c0-.75-.53-1-1.17-.67A2.57,2.57,0,0,0,80.75,66.41Z"/><path class="cls-2" d="M76.65,68.78c0,.74.52,1,1.16.67a2.57,2.57,0,0,0,1.16-2c0-.75-.52-1-1.16-.68A2.59,2.59,0,0,0,76.65,68.78Z"/><path class="cls-5" d="M72.54,71.15c0,.74.52,1,1.17.67a2.57,2.57,0,0,0,1.16-2c0-.74-.52-1-1.16-.67A2.57,2.57,0,0,0,72.54,71.15Z"/><path class="cls-2" d="M68.44,73.52c0,.74.52,1,1.16.67a2.58,2.58,0,0,0,1.17-2c0-.74-.53-1-1.17-.67A2.59,2.59,0,0,0,68.44,73.52Z"/><path class="cls-2" d="M51.15,85.62l2.39-1.38A1.53,1.53,0,0,0,54.19,83V80.48c0-.48-.29-.7-.65-.49l-2.39,1.38a1.57,1.57,0,0,0-.64,1.24v2.52C50.51,85.61,50.8,85.83,51.15,85.62Z"/><path class="cls-7" d="M47.71,110,98.16,80.86a4.92,4.92,0,0,0,2-3.91V67.33c0-1.5-.92-2.19-2-1.54L47.71,94.92a4.89,4.89,0,0,0-2.05,3.9v9.62C45.66,110,46.58,110.64,47.71,110Z"/><path class="cls-11" d="M49.15,106.61,96.71,79.16a2.49,2.49,0,0,0,1-2V70c0-.77-.46-1.12-1-.79L49.15,96.62a2.47,2.47,0,0,0-1,2v7.23C48.12,106.59,48.58,106.94,49.15,106.61Z"/><path class="cls-5" d="M86.8,81.22l7.09-4.09a2.42,2.42,0,0,0,1-1.93h0c0-.74-.45-1.08-1-.76l-7.09,4.1a2.4,2.4,0,0,0-1,1.92h0C85.79,81.21,86.24,81.55,86.8,81.22Z"/><path class="cls-6" d="M80.75,83.37c0,.75.52,1,1.16.67a2.58,2.58,0,0,0,1.17-2c0-.74-.53-1-1.17-.67A2.57,2.57,0,0,0,80.75,83.37Z"/><path class="cls-2" d="M76.65,85.74c0,.74.52,1,1.16.67a2.57,2.57,0,0,0,1.16-2c0-.74-.52-1-1.16-.67A2.57,2.57,0,0,0,76.65,85.74Z"/><path class="cls-5" d="M72.54,88.11c0,.74.52,1,1.17.67a2.57,2.57,0,0,0,1.16-2c0-.74-.52-1-1.16-.67A2.55,2.55,0,0,0,72.54,88.11Z"/><path class="cls-2" d="M68.44,90.48c0,.74.52,1,1.16.67a2.58,2.58,0,0,0,1.17-2c0-.74-.53-1-1.17-.67A2.57,2.57,0,0,0,68.44,90.48Z"/><path class="cls-2" d="M51.15,102.59l2.39-1.38a1.55,1.55,0,0,0,.65-1.24V97.44c0-.47-.29-.69-.65-.49l-2.39,1.38a1.57,1.57,0,0,0-.64,1.24v2.53C50.51,102.57,50.8,102.79,51.15,102.59Z"/><path class="cls-7" d="M47.71,127,98.16,97.82a4.91,4.91,0,0,0,2-3.9V84.3c0-1.51-.92-2.2-2-1.55L47.71,111.88a4.9,4.9,0,0,0-2.05,3.91v9.62C45.66,126.91,46.58,127.6,47.71,127Z"/><path class="cls-11" d="M49.15,123.58,96.71,96.12a2.49,2.49,0,0,0,1-2V86.91c0-.76-.46-1.12-1-.79L49.15,113.58a2.49,2.49,0,0,0-1,2v7.23C48.12,123.56,48.58,123.91,49.15,123.58Z"/><path class="cls-5" d="M86.8,98.19l7.09-4.1a2.4,2.4,0,0,0,1-1.92h0c0-.75-.45-1.09-1-.76L86.8,95.5a2.42,2.42,0,0,0-1,1.93h0C85.79,98.17,86.24,98.51,86.8,98.19Z"/><path class="cls-6" d="M80.75,100.34c0,.74.52,1,1.16.67a2.58,2.58,0,0,0,1.17-2c0-.74-.53-1-1.17-.67A2.59,2.59,0,0,0,80.75,100.34Z"/><path class="cls-2" d="M76.65,102.71c0,.74.52,1,1.16.67a2.59,2.59,0,0,0,1.16-2c0-.74-.52-1-1.16-.67A2.57,2.57,0,0,0,76.65,102.71Z"/><path class="cls-5" d="M72.54,105.08c0,.74.52,1,1.17.67a2.59,2.59,0,0,0,1.16-2c0-.74-.52-1-1.16-.67A2.55,2.55,0,0,0,72.54,105.08Z"/><path class="cls-2" d="M68.44,107.44c0,.75.52,1,1.16.68a2.61,2.61,0,0,0,1.17-2c0-.74-.53-1-1.17-.67A2.57,2.57,0,0,0,68.44,107.44Z"/><path class="cls-2" d="M51.15,119.55l2.39-1.38a1.55,1.55,0,0,0,.65-1.23v-2.53c0-.48-.29-.7-.65-.49l-2.39,1.38a1.55,1.55,0,0,0-.64,1.23v2.53C50.51,119.54,50.8,119.76,51.15,119.55Z"/><path class="cls-7" d="M47.71,143.91l50.45-29.12a4.92,4.92,0,0,0,2-3.91v-9.62c0-1.5-.92-2.2-2-1.54L47.71,128.84a4.9,4.9,0,0,0-2.05,3.91v9.62C45.66,143.87,46.58,144.57,47.71,143.91Z"/><path class="cls-11" d="M49.15,140.54l47.56-27.45a2.49,2.49,0,0,0,1-2v-7.23c0-.76-.46-1.11-1-.78L49.15,130.54a2.49,2.49,0,0,0-1,2v7.23C48.12,140.52,48.58,140.87,49.15,140.54Z"/><path class="cls-5" d="M86.8,115.15l7.09-4.1a2.4,2.4,0,0,0,1-1.92h0c0-.74-.45-1.08-1-.76l-7.09,4.1a2.4,2.4,0,0,0-1,1.92h0C85.79,115.13,86.24,115.47,86.8,115.15Z"/><path class="cls-2" d="M80.75,117.3c0,.74.52,1,1.16.67a2.58,2.58,0,0,0,1.17-2c0-.74-.53-1-1.17-.67A2.57,2.57,0,0,0,80.75,117.3Z"/><path class="cls-2" d="M76.65,119.67c0,.74.52,1,1.16.67a2.57,2.57,0,0,0,1.16-2c0-.75-.52-1-1.16-.67A2.57,2.57,0,0,0,76.65,119.67Z"/><path class="cls-5" d="M72.54,122c0,.74.52,1,1.17.67a2.57,2.57,0,0,0,1.16-2c0-.75-.52-1-1.16-.68A2.58,2.58,0,0,0,72.54,122Z"/><path class="cls-2" d="M68.44,124.41c0,.74.52,1,1.16.67a2.58,2.58,0,0,0,1.17-2c0-.74-.53-1-1.17-.67A2.59,2.59,0,0,0,68.44,124.41Z"/><path class="cls-5" d="M51.15,136.51l2.39-1.38a1.53,1.53,0,0,0,.65-1.23v-2.53c0-.48-.29-.7-.65-.49l-2.39,1.38a1.57,1.57,0,0,0-.64,1.24V136C50.51,136.5,50.8,136.72,51.15,136.51Z"/><path class="cls-7" d="M47.71,160.88l50.45-29.13a4.92,4.92,0,0,0,2-3.91v-9.62c0-1.5-.92-2.19-2-1.54L47.71,145.81a4.89,4.89,0,0,0-2.05,3.9v9.62C45.66,160.84,46.58,161.53,47.71,160.88Z"/><path class="cls-11" d="M49.15,157.51l47.56-27.46a2.49,2.49,0,0,0,1-2v-7.23c0-.77-.46-1.12-1-.79L49.15,147.51a2.49,2.49,0,0,0-1,2v7.23C48.12,157.48,48.58,157.84,49.15,157.51Z"/><path class="cls-5" d="M86.8,132.12l7.09-4.1a2.4,2.4,0,0,0,1-1.93h0c0-.74-.45-1.08-1-.76l-7.09,4.1a2.4,2.4,0,0,0-1,1.92h0C85.79,132.1,86.24,132.44,86.8,132.12Z"/><path class="cls-2" d="M80.75,134.26c0,.75.52,1.05,1.16.68a2.6,2.6,0,0,0,1.17-2c0-.74-.53-1-1.17-.67A2.57,2.57,0,0,0,80.75,134.26Z"/><path class="cls-6" d="M76.65,136.63c0,.75.52,1.05,1.16.67a2.57,2.57,0,0,0,1.16-2c0-.74-.52-1-1.16-.67A2.57,2.57,0,0,0,76.65,136.63Z"/><path class="cls-5" d="M72.54,139c0,.74.52,1,1.17.67a2.57,2.57,0,0,0,1.16-2c0-.74-.52-1-1.16-.67A2.55,2.55,0,0,0,72.54,139Z"/><path class="cls-6" d="M68.44,141.37c0,.74.52,1,1.16.67a2.58,2.58,0,0,0,1.17-2c0-.74-.53-1-1.17-.67A2.57,2.57,0,0,0,68.44,141.37Z"/><path class="cls-5" d="M51.15,153.48l2.39-1.38a1.55,1.55,0,0,0,.65-1.24v-2.53c0-.47-.29-.69-.65-.49l-2.39,1.38a1.57,1.57,0,0,0-.64,1.24V153C50.51,153.47,50.8,153.68,51.15,153.48Z"/><path class="cls-7" d="M47.71,177.84l50.45-29.13a4.91,4.91,0,0,0,2-3.9v-9.62c0-1.51-.92-2.2-2-1.55L47.71,162.77a4.9,4.9,0,0,0-2.05,3.91v9.62C45.66,177.8,46.58,178.49,47.71,177.84Z"/><path class="cls-11" d="M49.15,174.47,96.71,147a2.47,2.47,0,0,0,1-2V137.8c0-.76-.46-1.11-1-.78L49.15,164.47a2.49,2.49,0,0,0-1,2v7.23C48.12,174.45,48.58,174.8,49.15,174.47Z"/><path class="cls-5" d="M86.8,149.08l7.09-4.1a2.4,2.4,0,0,0,1-1.92h0c0-.74-.45-1.08-1-.76l-7.09,4.09a2.42,2.42,0,0,0-1,1.93h0C85.79,149.06,86.24,149.4,86.8,149.08Z"/><path class="cls-2" d="M80.75,151.23c0,.74.52,1,1.16.67a2.58,2.58,0,0,0,1.17-2c0-.75-.53-1-1.17-.68A2.59,2.59,0,0,0,80.75,151.23Z"/><path class="cls-2" d="M76.65,153.6c0,.74.52,1,1.16.67a2.57,2.57,0,0,0,1.16-2c0-.74-.52-1-1.16-.67A2.59,2.59,0,0,0,76.65,153.6Z"/><path class="cls-5" d="M72.54,156c0,.74.52,1,1.17.67a2.59,2.59,0,0,0,1.16-2c0-.74-.52-1-1.16-.67A2.55,2.55,0,0,0,72.54,156Z"/><path class="cls-2" d="M68.44,158.34c0,.74.52,1,1.16.67a2.6,2.6,0,0,0,1.17-2c0-.74-.53-1-1.17-.67A2.57,2.57,0,0,0,68.44,158.34Z"/><path class="cls-2" d="M51.15,170.44l2.39-1.38a1.53,1.53,0,0,0,.65-1.23V165.3c0-.48-.29-.7-.65-.49l-2.39,1.38a1.55,1.55,0,0,0-.64,1.23V170C50.51,170.43,50.8,170.65,51.15,170.44Z"/><path class="cls-7" d="M47.71,194.81l50.45-29.13a4.92,4.92,0,0,0,2-3.91v-9.62c0-1.5-.92-2.2-2-1.54L47.71,179.73a4.91,4.91,0,0,0-2.05,3.91v9.62C45.66,194.77,46.58,195.46,47.71,194.81Z"/><path class="cls-11" d="M49.15,191.43,96.71,164a2.49,2.49,0,0,0,1-2v-7.24c0-.76-.46-1.11-1-.78L49.15,181.43a2.51,2.51,0,0,0-1,2v7.23C48.12,191.41,48.58,191.76,49.15,191.43Z"/><path class="cls-5" d="M86.8,166,93.89,162a2.43,2.43,0,0,0,1-1.93h0c0-.74-.45-1.08-1-.76l-7.09,4.1a2.4,2.4,0,0,0-1,1.92h0C85.79,166,86.24,166.36,86.8,166Z"/><path class="cls-6" d="M79.45,169.11c0,1.4,1,2,2.2,1.27a4.88,4.88,0,0,0,2.2-3.81c0-1.4-1-2-2.2-1.27A4.89,4.89,0,0,0,79.45,169.11Z"/><path class="cls-2" d="M71,174.08c0,.74.52,1,1.17.67a2.57,2.57,0,0,0,1.16-2c0-.74-.52-1-1.16-.67A2.55,2.55,0,0,0,71,174.08Z"/><path class="cls-5" d="M66.85,176.45c0,.74.52,1,1.16.67a2.55,2.55,0,0,0,1.17-2c0-.74-.52-1-1.17-.67A2.57,2.57,0,0,0,66.85,176.45Z"/><path class="cls-2" d="M62.75,178.82c0,.74.52,1,1.16.67a2.57,2.57,0,0,0,1.16-2c0-.74-.52-1-1.16-.67A2.57,2.57,0,0,0,62.75,178.82Z"/><path class="cls-5" d="M51.15,187.41,53.54,186a1.55,1.55,0,0,0,.65-1.24v-2.53c0-.48-.29-.69-.65-.49l-2.39,1.38a1.57,1.57,0,0,0-.64,1.24v2.53C50.51,187.39,50.8,187.61,51.15,187.41Z"/><path class="cls-5" d="M185.16,145.68l19.5-88.76"/><polygon class="cls-1" points="179.91 72.52 161.97 62.16 179.91 51.81 197.84 62.16 179.91 72.52"/><polygon class="cls-2" points="197.84 49.02 179.91 59.37 179.91 38.66 197.84 28.3 197.84 49.02"/><polyline class="cls-5" points="179.91 17.95 197.84 28.3 179.91 38.66 161.97 28.3 179.91 17.95"/><polygon class="cls-7" points="179.91 59.37 161.97 49.02 161.97 28.3 179.91 38.66 179.91 59.37"/><polygon class="cls-6" points="173.45 48.18 168.43 45.29 168.43 39.49 173.45 42.39 173.45 48.18"/></g></g></svg>