<svg xmlns="http://www.w3.org/2000/svg" xmlns:xlink="http://www.w3.org/1999/xlink" viewBox="0 0 214 495"><defs><linearGradient id="linear-gradient" x1="-805.41" y1="183.27" x2="-685" y2="183.27" gradientTransform="matrix(-1, 0, 0, 1, -676, 0)" gradientUnits="userSpaceOnUse"><stop offset="0" stop-color="#fff"/><stop offset="1"/></linearGradient></defs><title>Fichier 2</title><g style="isolation:isolate"><g id="Calque_2" data-name="Calque 2"><g id="图层_1" data-name="图层 1"><path d="M52.18,472.28C52.18,484.83,67.63,495,86.7,495s34.51-10.17,34.51-22.72-15.45-22.72-34.51-22.72S52.18,459.73,52.18,472.28Z" fill="#c2fcf6"/><path d="M87.24,476.2c3.7,0,6.7-3.75,6.7-8.39V197.44c0-4.63-3-8.39-6.7-8.39s-6.71,3.76-6.71,8.39V467.81C80.53,472.45,83.53,476.2,87.24,476.2Z" fill="#4a9ff5"/><path d="M9,155.64l.19,21.83v1.41a3.62,3.62,0,0,0,.19,1.41v.24a6.63,6.63,0,0,1,.18.93c.19.24.19.71.38,1.18v.23a1.36,1.36,0,0,0,.37.94,3.91,3.91,0,0,0,.38,1.41c.19,0,.19.24.19.24.18.23.18.47.37.7.19.47.57.94.75,1.41.19.24.19.47.38.47,0,.23.18.23.18.47.57.7.94,1.41,1.51,2.11.18,0,.18.24.37.47.19,0,.19,0,.19.24.37.23.75.7,1.12.94.38.46.57.7.94,1.17.38.23.94.7,1.32.94s.56.47.93.7l.38.47,67.91,49.3a58.24,58.24,0,0,0,5.06,3.06,12,12,0,0,0,1.32.47c.56.23.93.46,1.5.7a17.43,17.43,0,0,0,1.87.7c1.13.24,2.25.71,3.38.94a4,4,0,0,0,1.31.47,13.09,13.09,0,0,0,3,.47,1.89,1.89,0,0,0,1.12.24h.38a22.91,22.91,0,0,0,3.93.47h3.57c1.12,0,2.25-.24,3.38-.24.56,0,.93-.23,1.31-.23h.94a2.53,2.53,0,0,1,1.31-.24L124,251c.37-.24.75-.24.93-.47a1.92,1.92,0,0,0,1.13-.24c.56-.23,1.13-.23,1.69-.47s.94-.46,1.5-.7l1.69-.7c.18,0,.56-.24.75-.24.19-.23.19-.23.37-.23a56.91,56.91,0,0,0,5.07-3.06l22-15.73c6.94-5.16,10.31-11.73,10.31-18.31V189c0,6.57-3.37,13.14-10.31,18.08l-22,16a46.83,46.83,0,0,1-12.57,5.87h-.19a46.33,46.33,0,0,1-24,0c-1.13-.23-2.25-.71-3.38-.94a10.11,10.11,0,0,1-3.37-1.41c-.57-.23-.94-.47-1.5-.7A21.19,21.19,0,0,1,87.23,223L19.32,173.48a7.28,7.28,0,0,1-1.31-.94,7.77,7.77,0,0,1-1.32-1.17,3.62,3.62,0,0,1-.94-.94c-.37-.23-.56-.7-.93-.94h-.19l-.56-.7a14.61,14.61,0,0,1-1.51-2.12c-.18-.23-.37-.7-.56-.94-.18-.46-.56-.93-.75-1.4s-.37-.71-.56-1.18a4.93,4.93,0,0,1-.56-1.17,2.78,2.78,0,0,0-.38-1.17v-.47A18.79,18.79,0,0,1,9,155.64Z" fill="#edf9f8"/><path d="M9,155.64a18.79,18.79,0,0,0,.75,4.7,14.25,14.25,0,0,0,1.5,4c.19.47.57.94.75,1.4a16.52,16.52,0,0,0,2.82,3.76c.37.24.56.71.93.94a30.56,30.56,0,0,0,3.57,3L87.23,223a21.19,21.19,0,0,0,4.88,2.82c.56.23.93.47,1.5.7A10.11,10.11,0,0,0,97,228c1.13.23,2.25.71,3.38.94a46.33,46.33,0,0,0,24,0h.19A46.83,46.83,0,0,0,137.13,223l22-16c6.94-4.94,10.31-11.51,10.31-18.08,0-6.34-3.37-12.92-10.31-17.84L91.17,121.6a10.9,10.9,0,0,0-1.5-.94c-13.7-8.92-35.08-8.69-48.22.94l-21.94,16C12.56,142.49,9,149.07,9,155.64Z" fill="#5ff4ee"/><path d="M86.05,231.19c-1.75-1.27-3.2-.24-3.2,2.29a9.45,9.45,0,0,0,3.18,6.9c1.78,1.28,3.2.24,3.21-2.29A9.39,9.39,0,0,0,86.05,231.19Z" fill="#033fff"/><path d="M74.48,223.12c-1.76-1.27-3.2-.25-3.2,2.28a9.4,9.4,0,0,0,3.18,6.9c1.78,1.28,3.2.24,3.2-2.28A9.34,9.34,0,0,0,74.48,223.12Z" fill="#033fff"/><path d="M62.91,215c-1.76-1.27-3.2-.24-3.2,2.29a9.42,9.42,0,0,0,3.18,6.9c1.77,1.28,3.2.24,3.2-2.29A9.38,9.38,0,0,0,62.91,215Z" fill="#033fff"/><path d="M81.1,129.71,62.81,2.69c-.26-1.77-1.62-3-3-2.64a3.28,3.28,0,0,0-2.12,3.7l15,127.69c.35,2.93,2.52,5,4.87,4.53s4-3.16,3.62-6.09Z" fill="#033fff"/><path d="M152.25,180.19,213.49,76.35a3.84,3.84,0,0,0-.55-4.58,2.29,2.29,0,0,0-3.61.61l-63.89,101.3a6.32,6.32,0,0,0,.71,7.54c1.85,1.83,4.55,1.44,6-.89Z" fill="#033fff"/><path d="M9,155.64l.19,21.83v1.41a3.62,3.62,0,0,0,.19,1.41v.24a6.63,6.63,0,0,1,.18.93c.19.24.19.71.38,1.18v.23a1.36,1.36,0,0,0,.37.94,3.91,3.91,0,0,0,.38,1.41c.19,0,.19.24.19.24.18.23.18.47.37.7.19.47.57.94.75,1.41.19.24.19.47.38.47,0,.23.18.23.18.47.57.7.94,1.41,1.51,2.11.18,0,.18.24.37.47.19,0,.19,0,.19.24.37.23.75.7,1.12.94.38.46.57.7.94,1.17.38.23.94.7,1.32.94s.56.47.93.7l.38.47,67.91,49.3a58.24,58.24,0,0,0,5.06,3.06,12,12,0,0,0,1.32.47c.56.23.93.46,1.5.7a17.43,17.43,0,0,0,1.87.7c1.13.24,2.25.71,3.38.94a4,4,0,0,0,1.31.47,13.09,13.09,0,0,0,3,.47,1.89,1.89,0,0,0,1.12.24h.38a22.91,22.91,0,0,0,3.93.47h3.57c1.12,0,2.25-.24,3.38-.24.56,0,.93-.23,1.31-.23h.94a2.53,2.53,0,0,1,1.31-.24L124,251c.37-.24.75-.24.93-.47a1.92,1.92,0,0,0,1.13-.24c.56-.23,1.13-.23,1.69-.47s.94-.46,1.5-.7a32.92,32.92,0,0,0-4.69-20.19h-.19a34.5,34.5,0,0,0-5.06-7c-7.13-7.28-16-11-24.39-16A123.23,123.23,0,0,1,65.28,181c-2.63-3.06-5.06-6.11-6.57-9.86-3-7.28-2.06-16.44.94-23.48,6.76-15.5,18.57-15.5,28.33-24.89a8.46,8.46,0,0,0,1.69-2.11c-13.7-8.92-35.08-8.69-48.22.94l-21.94,16C12.56,142.49,9,149.07,9,155.64Z" fill="url(#linear-gradient)" style="mix-blend-mode:overlay"/><path d="M46.93,256s.46,4.51,2.18,5.78c2.47,1.82,1.09,5.84,1.09,5.84l-13.46,4.94s-5.79-.9-1.87-2.62,5.3-7.57,4.47-13.22C38.8,253,46.93,256,46.93,256Z" fill="#ffde83"/><path d="M49,261.19c-1.72,4-8,4.68-9.88,2.75-1.08-1.13-9.93,10.27-5.58,10.83,4.73.62,18.24-4,17.95-9.19C51.28,262,49,261.19,49,261.19Z" fill="#4a9ff5"/><path d="M19.05,257.22s-.92,4.41.33,6.27c1.77,2.65-.74,5.91-.74,5.91L4.5,268.9s-5.18-3.07-1-3.18,7.26-5.1,8.18-10.73C12.31,251.29,19.05,257.22,19.05,257.22Z" fill="#ffde83"/><path d="M19.43,262.92c-2.82,3.1-9,1.33-10.13-1.2-.67-1.47-12.42,5.86-8.5,8.06C5.07,272.17,19.16,273,20.45,268,21.34,264.55,19.43,262.92,19.43,262.92Z" fill="#4a9ff5"/><path d="M68.57,167C68,180.4,53,186.58,34.29,190.43L21,257.64c-2.37,3.6-10.53,1.22-10.62-2.17l8.79-72.55c3.52-8.22,14.73-20.95,30.74-28.21Z" fill="#0649f2"/><path d="M83.54,172.37C83,185.82,67.93,197,49.26,200.88l-1.11,55.21c-2.37,3.61-10.53,4.47-10.63-2.16l-6-60.55c0-8.23,17.27-21,33.28-28.22Z" fill="#033fff"/><path d="M53.46,92.19c-3.88-1.81-10.35,30.46-10.31,46.42L31.64,169.07l5,3.3C42.84,162.74,48.54,153,52.1,143c0,0,5.47-24.53,5-34.4C56.87,103.44,60.44,95.43,53.46,92.19Z" fill="#ffde83"/><path d="M85.36,173.87c-8.82,5.77-33.94-6.27-39-16.67,11.31-17.39,0-37.06,5.59-64.06,6.64-5.85,28.76,4.61,34.78,11.16C90.51,114.23,88.44,172.58,85.36,173.87Z" fill="#2014b2"/><path d="M84.06,102.6c-3.88-1.81-4.58,29.37-4.54,45.33L52.58,175.37l3.19,5.39c13.29-8.73,26.9-17.46,32.7-26,3.7-13,4.91-23.9,4.41-33.76C92.68,115.76,91,105.84,84.06,102.6Z" fill="#ffde83"/><path d="M76.51,98.09C72.72,101.63,62,98.5,63.46,93L67,80.48,76,84C75.33,89.12,75.32,93.91,76.51,98.09Z" fill="#f2d079"/><path d="M78.46,88.15c-4.32,4-10.28,7.91-14.25,3.27-3-5-8.84-19.6-4.73-25.34l18.18-4Z" fill="#ffde83"/><path d="M68.55,75.5c-4.65,1.57-9.69,5.34-13.08,3-2.89-2-4.17-13.77-.71-14.34s7.32-2.41,8.57-4.6,4.74-5,6.59-2.78,2.22,3.22,5.26,2.82,8.47,3.78,6.84,7.7.66,6.22,2.11,8.56S82.77,88.06,78.71,90s-5,.79-5,.79c-.59,0-1.45-5.54.45-8,1.46-1.91-1-3.48-1.92-3.1-1.61.64-1.73,4-1.73,4l-1.69-.51Z" fill="#002172"/><polygon points="55.01 180.76 36.68 194.33 5.57 173.78 26.26 163.07 55.01 180.76" fill="#4a9ff5"/><polygon points="5.57 173.78 2.52 144.5 32.74 163.07 36.68 194.33 5.57 173.78" fill="#6bb8f7"/><path d="M52.58,175.37s-5.82-1.35-7.85.8-3.91,3.45-3.12,4.59c1.38,2,6.8-1.7,9,0s5.8-.38,5.8-.38Z" fill="#ffde83"/><path d="M92.46,141.66c0,.92-14.18,0-14-2.35.05-.71.11-41.25,5.08-37.76C99.16,112.47,92.46,141.66,92.46,141.66Z" fill="#2014b2"/><path d="M42.31,128.25c-.17.9,13.85,3.44,14.12,1.13.08-.71,2.23-39.46-3.3-37.27C46.37,94.8,42.31,128.25,42.31,128.25Z" fill="#2014b2"/></g></g></g></svg>