<svg xmlns="http://www.w3.org/2000/svg" xmlns:xlink="http://www.w3.org/1999/xlink" viewBox="0 0 391.7 451"><defs><radialGradient id="Dégradé_sans_nom_29" cx="399.11" cy="93.35" r="34.34" gradientTransform="matrix(-0.01, 1.02, -1, -0.01, 442.19, -386.98)" gradientUnits="userSpaceOnUse"><stop offset="0" stop-color="#ff94f9"/><stop offset="1" stop-color="#cc228e"/></radialGradient><linearGradient id="Áåçûìÿííûé_ãðàäèåíò_354" x1="167.41" y1="186.5" x2="285.06" y2="186.5" gradientUnits="userSpaceOnUse"><stop offset="0" stop-color="#01c8ef"/><stop offset="0.13" stop-color="#04b1dd"/><stop offset="0.55" stop-color="#0e6ba7"/><stop offset="0.85" stop-color="#154085"/><stop offset="1" stop-color="#172f78"/></linearGradient><radialGradient id="Áåçûìÿííûé_ãðàäèåíò_346" cx="146.56" cy="106.37" r="262.56" gradientUnits="userSpaceOnUse"><stop offset="0" stop-color="#01c8ef"/><stop offset="0.14" stop-color="#03bae4"/><stop offset="0.4" stop-color="#0895c8"/><stop offset="0.76" stop-color="#115a9a"/><stop offset="1" stop-color="#172f78"/></radialGradient><radialGradient id="Dégradé_sans_nom_29-2" cx="167.52" cy="333.21" r="88.88" gradientTransform="matrix(-1, 0, 0, 1, 386.74, 0)" xlink:href="#Dégradé_sans_nom_29"/><radialGradient id="Dégradé_sans_nom_29-3" cx="159.36" cy="335.54" r="89.45" gradientTransform="matrix(-1, 0, 0, 1, 386.74, 0)" xlink:href="#Dégradé_sans_nom_29"/><radialGradient id="Dégradé_sans_nom_29-4" cx="259.95" cy="325.91" r="66.09" gradientTransform="matrix(1, 0, 0, 1, 0, 0)" xlink:href="#Dégradé_sans_nom_29"/><radialGradient id="Dégradé_sans_nom_29-5" cx="204.11" cy="326.09" r="38.47" gradientTransform="matrix(1, 0, 0, 1, 0, 0)" xlink:href="#Dégradé_sans_nom_29"/><radialGradient id="Dégradé_sans_nom_29-6" cx="205.28" cy="334.63" r="44.98" gradientTransform="matrix(1, 0, 0, 1, 0, 0)" xlink:href="#Dégradé_sans_nom_29"/><radialGradient id="Dégradé_sans_nom_29-7" cx="198.47" cy="338.56" r="44.98" gradientTransform="matrix(1, 0, 0, 1, 0, 0)" xlink:href="#Dégradé_sans_nom_29"/><radialGradient id="Dégradé_sans_nom_29-8" cx="191.66" cy="342.49" r="44.98" gradientTransform="matrix(1, 0, 0, 1, 0, 0)" xlink:href="#Dégradé_sans_nom_29"/><radialGradient id="Dégradé_sans_nom_29-9" cx="222.57" cy="324.68" r="45" gradientTransform="matrix(1, 0, 0, 1, 0, 0)" xlink:href="#Dégradé_sans_nom_29"/><radialGradient id="Dégradé_sans_nom_29-10" cx="254.51" cy="355.14" r="10.4" gradientTransform="matrix(1, 0, 0, 1, 0, 0)" xlink:href="#Dégradé_sans_nom_29"/><radialGradient id="Dégradé_sans_nom_29-11" cx="273.83" cy="193.2" r="216.52" gradientTransform="matrix(-1, 0, 0, 1, 386.74, 0)" xlink:href="#Dégradé_sans_nom_29"/><radialGradient id="Dégradé_sans_nom_29-12" cx="26.53" cy="371.19" r="38.05" gradientTransform="matrix(-1, 0, 0, 1, 386.74, 0)" xlink:href="#Dégradé_sans_nom_29"/><radialGradient id="Dégradé_sans_nom_29-13" cx="185.32" cy="299.62" r="84.74" gradientTransform="matrix(1, 0, 0, 1, 0, 0)" xlink:href="#Dégradé_sans_nom_29"/><radialGradient id="Dégradé_sans_nom_29-14" cx="193.92" cy="299.61" r="80.93" gradientTransform="matrix(1, 0, 0, 1, 0, 0)" xlink:href="#Dégradé_sans_nom_29"/><linearGradient id="Áåçûìÿííûé_ãðàäèåíò_354-2" x1="208.84" y1="212.75" x2="219.53" y2="212.75" xlink:href="#Áåçûìÿííûé_ãðàäèåíò_354"/><linearGradient id="Áåçûìÿííûé_ãðàäèåíò_354-3" x1="211.94" y1="210.12" x2="222.63" y2="210.12" xlink:href="#Áåçûìÿííûé_ãðàäèåíò_354"/></defs><title>Ñëîé 1</title><g id="Calque_2" data-name="Calque 2"><g id="Ñëîé_1" data-name="Ñëîé 1"><path d="M323.19,384.22a6.87,6.87,0,0,1-3.28-.84l-16.79-9.17,1-1.75,16.79,9.16a4.82,4.82,0,0,0,4.7,0L379,351.75a1.18,1.18,0,0,0,.62-1.06,1.16,1.16,0,0,0-.61-1.06L204.56,249.21a5,5,0,0,1-2.5-4.33V236a5.26,5.26,0,0,1,2.59-4.52l8.57-5.06,1,1.72-8.58,5.06a3.26,3.26,0,0,0-1.6,2.8v8.93a3,3,0,0,0,1.5,2.6L380,347.9a3.22,3.22,0,0,1,0,5.6l-53.43,29.85A6.89,6.89,0,0,1,323.19,384.22Z" fill="#eaeaea"/><path d="M310.55,154.85l-1-1.76,29.44-16a10.78,10.78,0,0,0,5.64-9.48V10.84h2V127.6A12.78,12.78,0,0,1,340,138.84Z" fill="#eaeaea"/><path d="M82.23,450h-3V439.94c0-2.8-2.25-5.43-5.87-6.86L11,408.4c-2.27-.89-3.62-2.48-3.62-4.23S8.69,400.84,11,400l134.68-53.06,1.54,1.72L12.5,401.66a2.54,2.54,0,0,0,0,5l62.38,24.68c4.53,1.79,7.35,5.08,7.35,8.58Z" fill="#eaeaea"/><path d="M310.07,144.13a1,1,0,0,1-.88-.52,1,1,0,0,1,.4-1.33L339,126.55a10.58,10.58,0,0,0,5.64-9.32V2.52a1,1,0,0,1,2,0V117.23a12.53,12.53,0,0,1-6.69,11L310.55,144A1,1,0,0,1,310.07,144.13Z" fill="#cc228e"/><path d="M340.85,187.54,287.8,156.91a17,17,0,0,0-15.29,0l-92.16,53.21c-4.22,2.44-4.22,6.39,0,8.83l53.06,30.63a16.88,16.88,0,0,0,15.29,0l92.15-53.21C345.07,193.93,345.07,190,340.85,187.54Z" fill="#eaeaea"/><path d="M301.63,0c4.36,21.17,22.72,37.12,44.83,37.25S387.11,21.62,391.7.51Z" fill="url(#Dégradé_sans_nom_29)"/><g opacity="0.5"><path d="M329.47,113.53a.11.11,0,0,0,0,0,.17.17,0,0,1,0,.07Z" fill="#380031"/></g><path d="M344.28,175.21h0V149.78l-32.14,4.29-24.07-13.9a16.88,16.88,0,0,0-15.29,0l-43.13,24.9-52.19,7v25.9h0c.06,1.55,1.09,3.09,3.14,4.27l53.06,30.64a17,17,0,0,0,15.29,0l92.15-53.21c2.05-1.18,3.08-2.72,3.14-4.26h0Z" fill="url(#Áåçûìÿííûé_ãðàäèåíò_354)"/><path d="M344.25,170.76c-.06,1.54-1.09,3.08-3.14,4.26L249,228.23a17,17,0,0,1-15.29,0l-53.06-30.64c-2.05-1.18-3.08-2.72-3.14-4.27h0v4.61h0c.06,1.55,1.09,3.09,3.14,4.27l53.06,30.64a17,17,0,0,0,15.29,0l92.15-53.21c2.05-1.18,3.08-2.72,3.14-4.26h0v-4.61Z" fill="#11203c"/><path d="M341.11,145.17l-53.05-30.63a16.88,16.88,0,0,0-15.29,0l-92.16,53.21c-4.22,2.44-4.22,6.39,0,8.83l53.06,30.63a17,17,0,0,0,15.29,0L341.11,154C345.33,151.56,345.33,147.61,341.11,145.17Z" fill="url(#Áåçûìÿííûé_ãðàäèåíò_346)"/><path d="M341.11,152.46,249,205.67a17,17,0,0,1-15.29,0L180.61,175a5.83,5.83,0,0,1-3.07-3.64c-.4,1.85.62,3.77,3.07,5.19l53.06,30.63a17,17,0,0,0,15.29,0L341.11,154c2.45-1.42,3.47-3.34,3.08-5.18A5.88,5.88,0,0,1,341.11,152.46Z" fill="#fff"/><polygon points="280.05 199.77 277.53 201.22 277.53 198.32 280.05 196.87 280.05 199.77" fill="#fff"/><polygon points="285.3 196.73 282.79 198.18 282.79 195.28 285.3 193.83 285.3 196.73" fill="#fff"/><polygon points="290.55 193.7 288.04 195.15 288.04 192.25 290.55 190.8 290.55 193.7" fill="#fff"/><polygon points="286.26 202.06 283.75 203.51 283.75 200.61 286.26 199.16 286.26 202.06" fill="#fff"/><polygon points="290.88 199.38 288.37 200.84 288.37 197.94 290.88 196.49 290.88 199.38" fill="#fff"/><polygon points="307.41 183.97 304.9 185.42 304.9 182.52 307.41 181.07 307.41 183.97" fill="#fff"/><polygon points="321.88 175.61 319.37 177.06 319.37 174.16 321.88 172.71 321.88 175.61" fill="#fff"/><polygon points="295.81 190.67 293.3 192.12 293.3 189.22 295.81 187.77 295.81 190.67" fill="#fff"/><polygon points="261 139.11 298.49 160.7 295.03 162.7 257.55 141.11 261 139.11" fill="#11203c"/><polygon points="258.85 141.86 261.2 140.5 297.39 161.34 298.49 160.7 261 139.11 257.55 141.11 258.85 141.86" fill="#fff"/><polygon points="271.5 133.03 308.99 154.63 305.54 156.63 268.05 135.03 271.5 133.03" fill="#11203c"/><polygon points="269.35 135.78 271.7 134.42 307.89 155.26 308.99 154.63 271.5 133.03 268.05 135.03 269.35 135.78" fill="#fff"/><polygon points="282.01 126.96 319.49 148.55 316.04 150.55 278.55 128.96 282.01 126.96" fill="#11203c"/><polygon points="279.85 129.71 282.21 128.34 318.39 149.19 319.49 148.55 282.01 126.96 278.55 128.96 279.85 129.71" fill="#fff"/><polygon points="220.25 204.91 222.76 206.36 222.76 203.46 220.25 202.01 220.25 204.91" fill="#fff"/><polygon points="212.38 200.56 214.89 202.01 214.89 199.11 212.38 197.66 212.38 200.56" fill="#03a7d3"/><polygon points="204.5 196.21 207.01 197.66 207.01 194.76 204.5 193.31 204.5 196.21" fill="#03a7d3"/><polygon points="196.63 191.86 199.14 193.31 199.14 190.41 196.63 188.96 196.63 191.86" fill="#03a7d3"/><path d="M240.63,195.3a5.38,5.38,0,0,1-2.69-.63l-35.7-20.61a2.13,2.13,0,0,1-1.21-1.82,2.77,2.77,0,0,1,1.62-2.25l34.88-20.14a6.73,6.73,0,0,1,6.13-.24l35.69,20.61a2.14,2.14,0,0,1,1.21,1.83,2.79,2.79,0,0,1-1.62,2.25l-34.88,20.14A7,7,0,0,1,240.63,195.3Zm.34-45.38a6.12,6.12,0,0,0-3,.74l-34.88,20.13c-.72.42-1.15,1-1.15,1.45a1.27,1.27,0,0,0,.75,1l35.69,20.61a5.91,5.91,0,0,0,5.2-.23l34.88-20.14c.72-.42,1.15-1,1.15-1.44a1.28,1.28,0,0,0-.75-1l-35.69-20.61A4.61,4.61,0,0,0,241,149.92Z" fill="#11203c"/><path d="M110.85,335.5l132.86,76.71a5.46,5.46,0,0,0,4.92.2l79.28-45.78c1.26-.72,1.1-2-.35-2.83L194.69,287.09a5.48,5.48,0,0,0-4.91-.21L110.5,332.66C109.24,333.39,109.39,334.66,110.85,335.5Z" fill="#eaeaea"/><path d="M109.72,310.55l7.32,3.83L190.49,272a5.34,5.34,0,0,1,4.8.2L322,345.31c1.21-.68,6.74-3.34,6.74-3.34L326,349h0a1.59,1.59,0,0,1-.75.83l-77.36,44.67a5.32,5.32,0,0,1-4.79-.2L113.48,319.4a2.28,2.28,0,0,1-1.09-1.15h0Z" fill="url(#Dégradé_sans_nom_29-2)"/><path d="M110.85,311.76l132.86,76.71a5.46,5.46,0,0,0,4.92.2l79.28-45.78c1.26-.72,1.1-2-.35-2.83L194.69,263.35a5.48,5.48,0,0,0-4.91-.21L110.5,308.92C109.24,309.65,109.39,310.92,110.85,311.76Z" fill="url(#Dégradé_sans_nom_29-3)"/><path d="M327.56,340.06,194.69,263.35a5.73,5.73,0,0,0-3.55-.63,5.17,5.17,0,0,1,1.93.63l132.86,76.71c1.46.84,1.62,2.11.36,2.83L247,388.67a3.75,3.75,0,0,1-1.36.43,4.93,4.93,0,0,0,3-.43l79.28-45.78C329.17,342.17,329,340.9,327.56,340.06Z" fill="url(#Dégradé_sans_nom_29-4)"/><polygon points="157 301.35 246.96 353.29 251.22 350.83 161.26 298.89 157 301.35" fill="url(#Dégradé_sans_nom_29-5)"/><polygon points="150.19 305.28 256.11 366.43 260.37 363.97 154.46 302.82 150.19 305.28" opacity="0.4" fill="url(#Dégradé_sans_nom_29-6)"/><polygon points="143.38 309.22 249.3 370.37 253.56 367.9 147.65 306.75 143.38 309.22" opacity="0.4" fill="url(#Dégradé_sans_nom_29-7)"/><polygon points="136.57 313.15 242.49 374.3 246.75 371.83 140.84 310.69 136.57 313.15" fill="url(#Dégradé_sans_nom_29-8)"/><polygon points="274.2 352.02 171.72 292.86 167.46 295.32 269.16 354.03 273.42 356.5 277.69 354.03 274.2 352.02" opacity="0.4" fill="url(#Dégradé_sans_nom_29-9)"/><polygon points="241.78 350.3 262.97 362.53 267.23 360.07 245.9 347.75 241.78 350.3" opacity="0.4" fill="url(#Dégradé_sans_nom_29-10)"/><path d="M109.93,308.58l16.79-99.64-1.35-.57,2-1.16h0a1.44,1.44,0,0,1,1.56.1l134.23,77.5a3.78,3.78,0,0,1,1.74,3.41L248,388.67a1.26,1.26,0,0,1-.71,1h0l-2,1.15L245,389l.12,0L111.67,312A3.77,3.77,0,0,1,109.93,308.58Z" fill="url(#Dégradé_sans_nom_29-11)"/><path d="M262.44,287.55l2.21-1a3,3,0,0,1,.28,1.66L248,388.67a1.26,1.26,0,0,1-.71,1h0l-2,1.15L245,389l.12,0-6.75-3.9Z" fill="url(#Dégradé_sans_nom_29-12)"/><path d="M109.56,313.2l134.23,77.5c1,.6,1.93.25,2.11-.82l16.93-100.44a3.81,3.81,0,0,0-1.74-3.41l-134.23-77.5c-1-.6-1.93-.25-2.11.82L107.82,309.79A3.81,3.81,0,0,0,109.56,313.2Z" fill="url(#Dégradé_sans_nom_29-13)"/><path d="M261.09,286l-134.23-77.5c-.8-.46-1.51-.35-1.88.21a2,2,0,0,1,.92.28l134.23,77.5a3.81,3.81,0,0,1,1.74,3.41L244.94,390.37a1.58,1.58,0,0,1-.23.61,1.17,1.17,0,0,0,1.19-1.1l16.93-100.44A3.81,3.81,0,0,0,261.09,286Z" fill="url(#Dégradé_sans_nom_29-14)"/><path d="M224.13,214.8l-29.46-17a3,3,0,0,1-1.27-2.43v-2.18c0-.94.57-1.37,1.27-1l29.46,17a3,3,0,0,1,1.27,2.43v2.19C225.4,214.78,224.83,215.21,224.13,214.8Z" fill="#11203c"/><path d="M222.63,212.47v-2.63l-3.57.36-.68-.39a1.32,1.32,0,0,0-1.25,0l-1,.65-4.23.42v2.62h0a.47.47,0,0,0,.25.34l3.18,1.83a1.38,1.38,0,0,0,1.16,0l5.8-2.88c.2-.1.3-.23.3-.37Z" fill="url(#Áåçûìÿííûé_ãðàäèåíò_354-2)"/><path d="M215.37,213.07l-3.18-1.84a.36.36,0,0,1,0-.67l5-3.35a1.32,1.32,0,0,1,1.25,0l4,2.31c.35.2.33.54,0,.72l-5.8,2.88A1.35,1.35,0,0,1,215.37,213.07Z" fill="url(#Áåçûìÿííûé_ãðàäèåíò_354-3)"/><path d="M323.2,370.54a6.78,6.78,0,0,1-3.29-.85l-16.79-9.16a1,1,0,0,1,1-1.76l16.79,9.17a4.85,4.85,0,0,0,4.7,0L379,338.07a1.2,1.2,0,0,0,.62-1.06,1.17,1.17,0,0,0-.61-1.07L204.56,235.52a5,5,0,0,1-2.5-4.33v-8.92a5.28,5.28,0,0,1,2.59-4.53l8.57-5.06a1,1,0,0,1,1,1.73l-8.58,5.05a3.28,3.28,0,0,0-1.6,2.81v8.92a3,3,0,0,0,1.5,2.6L380,334.21a3.22,3.22,0,0,1,0,5.6l-53.42,29.85A6.86,6.86,0,0,1,323.2,370.54Z" fill="#cc228e"/><path d="M77.09,451c-.88,0-1.59-.45-1.59-1V428.64c0-2.8-2.36-5.43-6.17-6.86L3.8,397.1c-2.38-.89-3.8-2.48-3.8-4.23s1.43-3.33,3.81-4.22l141.46-53.06a2.18,2.18,0,0,1,2.17.35c.45.48.2,1.09-.55,1.37L5.43,390.36c-1.42.54-2.26,1.47-2.26,2.51s.84,2,2.25,2.52L71,420.06c4.76,1.79,7.72,5.08,7.72,8.58V450C78.67,450.55,78,451,77.09,451Z" fill="#cc228e"/></g></g></svg>